<?xml version="1.0" standalone="no"?><!DOCTYPE svg PUBLIC "-//W3C//DTD SVG 1.1//EN" "http://www.w3.org/Graphics/SVG/1.1/DTD/svg11.dtd"><svg t="1719396341872" class="icon" viewBox="0 0 1024 1024" version="1.1" xmlns="http://www.w3.org/2000/svg" p-id="7069" width="256" height="256" xmlns:xlink="http://www.w3.org/1999/xlink"><path d="M285.700608 414.1056c0 11.1616 0 18.5856 3.9424 29.7472l11.7248 22.3744c0 3.7376 3.8912 3.7376 3.8912 7.4752 0 3.6864-3.84 7.424-7.8336 11.1104l-19.456 14.9504c-3.9424 0-3.9424 3.7376-7.8848 3.7376s-7.7824 0-11.6736-3.7376a51.2 51.2 0 0 1-11.776-14.9504c-3.8912-3.6864-7.7824-11.1104-11.7248-18.5856-27.392 18.5856-62.464 37.2736-101.5808 37.2736-23.4496 0-50.7392-7.4752-66.4064-22.3744C51.204608 466.2784 39.531008 443.904 43.422208 421.5808c0-26.112 11.776-48.4352 31.2832-63.3344 23.5008-18.5856 54.7328-26.112 82.1248-26.112 11.6736 0 23.3472 0 35.072 3.7376 11.776 0 27.392 3.7376 39.1168 7.424v-29.7472c3.8912-18.6368-3.8912-37.2224-15.616-52.224-15.6672-11.1104-35.1744-14.848-54.7328-14.848-11.7248 0-23.4496 0-35.1744 3.7376l-35.1744 11.1616c-3.8912 0-7.7824 3.7376-11.7248 3.7376h-3.9424c-3.84 0-7.7312-3.7376-7.7312-11.1616v-11.2128c0-3.6864 0-7.424 3.8912-11.1104 3.84-3.7888 7.7824-3.7888 7.7824-7.4752 13.6704-6.6048 28.16-11.6224 43.008-14.9504 7.8336 0 27.2896-3.6864 43.008-3.6864 31.232-3.6864 62.464 7.424 89.856 26.112 19.5584 22.3232 31.232 48.384 27.3408 78.1824v104.2944h3.8912z m-140.6464 48.4352c11.776 0 23.5008-3.7376 35.1744-7.4752 11.776-3.9424 22.4256-10.2912 31.3344-18.6368 3.8912-3.7376 7.7824-11.1616 11.6736-18.6368 3.9424-11.1616 3.9424-22.3232 3.9424-29.7472v-14.9504c-11.776-3.7376-19.5584-3.7376-31.2832-3.7376-11.776 0-19.5584-3.6864-31.2832-3.6864a112.5376 112.5376 0 0 0-50.7904 11.1616c-11.7248 7.424-15.616 22.3744-15.616 33.536 0 11.2128 3.8912 26.0608 11.7248 33.4848 7.7824 14.9504 23.4496 18.6368 35.1232 18.6368z m273.6128 33.4848c-3.9424 0-7.8336 0-11.776-3.7376-3.8912-3.6864-7.7824-7.4752-7.7824-11.1616l-78.2336-245.76c0-3.7376-3.9424-7.5264-3.9424-11.264 0-3.6864 0-3.6864 3.9424-7.424 0 0 3.8912-3.7376 7.7824-3.7376h35.2256c3.8912 0 7.7312 0 11.6736 3.7376 3.9424 3.7376 3.9424 7.4752 7.8336 11.1616l58.624 208.5888L496.644608 227.84c0-3.6864 3.9424-7.424 7.8336-11.1616 3.8912-3.7376 7.8336-3.7376 15.616-3.7376h27.3408c3.9424 0 7.8848 0 15.6672 3.7376 3.8912 3.7376 3.8912 7.4752 7.8336 11.1616l54.6816 212.3264 58.624-212.3264c0-3.6864 3.8912-7.424 7.8336-11.1616 3.8912-3.7376 7.7824-3.7376 11.7248-3.7376h31.232c3.8912 0 3.8912 0 7.8336 3.7376 0 0 3.9424 3.7376 3.9424 7.4752v3.6864c0 3.7888 0 3.7888-3.9424 7.4752l-82.0736 245.8624c0 3.6352-3.8912 7.424-7.8336 11.1104-3.8912 3.7376-7.7824 3.7376-11.6736 3.7376h-31.2832c-3.9424 0-7.8336 0-15.6672-3.7376-3.8912-3.6864-3.8912-7.4752-7.7824-11.1616l-54.7328-204.8-50.7392 204.8c0 3.6864-3.9936 7.4752-7.8848 11.1616-3.84 3.7376-7.7824 3.7376-15.616 3.7376h-39.0656 0.1024z m441.6 7.4752c-19.5584 0-35.2256 0-50.7904-3.7376a510.3616 510.3616 0 0 1-39.1168-11.1616 20.3776 20.3776 0 0 1-11.776-18.6368v-18.6368c0-7.4752 3.9424-11.1616 7.8848-11.1616h7.7824l7.8336 3.6864c11.6736 3.7376 23.4496 7.4752 39.0656 11.2128 11.776 3.7376 27.3408 3.7376 43.008 3.7376 15.616 0 35.1232-3.7376 50.7392-11.264 11.776-7.3728 19.6608-18.5344 19.6608-29.696 0-7.5264-3.9936-14.9504-7.8848-22.3744-23.4496-3.7376-35.1232-11.2128-46.8992-14.8992l-50.7904-14.8992c-19.5584-3.7376-39.0656-14.9504-54.784-33.536a69.4272 69.4272 0 0 1-15.5648-44.6976c0.3072-11.5712 2.9696-22.9888 7.8336-33.536 7.0656-10.4448 16.384-19.3024 27.2896-26.0096 11.776-7.4752 23.5008-11.264 35.2256-14.9504 11.776-3.6864 27.2896-7.424 39.0656-7.424h23.5008c7.7312 0 15.616 3.7376 23.4496 3.7376 7.7824 0 11.6736 3.6864 19.456 3.6864 3.9424 0 7.8336 3.7376 15.6672 3.7376 3.8912 3.7376 7.8336 3.7376 11.7248 7.4752 3.9424 3.6864 3.9424 7.4752 3.9424 11.1616v14.848c0 7.5264-3.9424 11.264-7.8336 11.264-3.9424 0-7.8336 0-11.776-3.7376a190.2592 190.2592 0 0 0-66.4064-11.2128c-15.616 0-31.232 3.7376-46.8992 7.4752-11.7248 11.1616-19.5584 18.6368-19.5584 33.4848 0 7.4752 3.9424 14.9504 11.776 22.3744 11.6736 7.424 23.4496 14.9504 39.0656 18.5856l46.8992 14.9504c19.5072 3.6864 39.0656 14.848 54.7328 29.7984 11.7248 14.8992 15.616 29.7472 15.616 44.6464 0 11.2128-3.8912 26.112-7.8336 37.2736-7.7824 11.1616-15.6672 22.3232-23.4496 29.7472-11.7248 7.4752-23.5008 14.9504-39.1168 18.688h-50.7392z" fill="#252F3E" p-id="7070"></path><path d="M972.036608 690.1248c-117.8624 99.1232-288.512 154.6752-434.7904 154.6752-194.9696 0-385.8944-83.3024-532.224-233.984-12.1344-11.9296 0-27.8016 12.2368-19.8656 162.5088 107.1104 345.344 162.6624 532.224 162.6624 138.1376 0 276.2752-31.744 406.272-95.232 20.3264-7.936 36.5568 15.872 16.2304 31.744h0.0512z" fill="#FF9900" p-id="7071"></path><path d="M966.967808 645.3248c-17.7152-22.3744-105.984-8.96-145.7664-4.4544-13.2096 0-13.2096-8.96-4.4032-17.92 70.656-49.152 189.9008-35.84 203.1104-17.92s-4.4032 138.752-70.656 192.4096c-8.8064 8.96-22.016 4.5568-13.2096-8.9088 13.2096-35.84 48.5376-120.832 30.9248-143.2064z" fill="#FF9900" p-id="7072"></path><path d="M285.700608 414.1056c0 11.1616 0 18.5856 3.9424 29.7472l11.7248 22.3744c0 3.7376 3.8912 3.7376 3.8912 7.4752 0 3.6864-3.84 7.424-7.8336 11.1104l-19.456 14.9504c-3.9424 0-3.9424 3.7376-7.8848 3.7376s-7.7824 0-11.6736-3.7376a51.2 51.2 0 0 1-11.776-14.9504c-3.8912-3.6864-7.7824-11.1104-11.7248-18.5856-27.392 18.5856-62.464 37.2736-101.5808 37.2736-23.4496 0-50.7392-7.4752-66.4064-22.3744C51.204608 466.2784 39.531008 443.904 43.422208 421.5808c0-26.112 11.776-48.4352 31.2832-63.3344 23.5008-18.5856 54.7328-26.112 82.1248-26.112 11.6736 0 23.3472 0 35.072 3.7376 11.776 0 27.392 3.7376 39.1168 7.424v-29.7472c3.8912-18.6368-3.8912-37.2224-15.616-52.224-15.6672-11.1104-35.1744-14.848-54.7328-14.848-11.7248 0-23.4496 0-35.1744 3.7376l-35.1744 11.1616c-3.8912 0-7.7824 3.7376-11.7248 3.7376h-3.9424c-3.84 0-7.7312-3.7376-7.7312-11.1616v-11.2128c0-3.6864 0-7.424 3.8912-11.1104 3.84-3.7888 7.7824-3.7888 7.7824-7.4752 13.6704-6.6048 28.16-11.6224 43.008-14.9504 7.8336 0 27.2896-3.6864 43.008-3.6864 31.232-3.6864 62.464 7.424 89.856 26.112 19.5584 22.3232 31.232 48.384 27.3408 78.1824v104.2944h3.8912z m-140.6464 48.4352c11.776 0 23.5008-3.7376 35.1744-7.4752 11.776-3.9424 22.4256-10.2912 31.3344-18.6368 3.8912-3.7376 7.7824-11.1616 11.6736-18.6368 3.9424-11.1616 3.9424-22.3232 3.9424-29.7472v-14.9504c-11.776-3.7376-19.5584-3.7376-31.2832-3.7376-11.776 0-19.5584-3.6864-31.2832-3.6864a112.5376 112.5376 0 0 0-50.7904 11.1616c-11.7248 7.424-15.616 22.3744-15.616 33.536 0 11.2128 3.8912 26.0608 11.7248 33.4848 7.7824 14.9504 23.4496 18.6368 35.1232 18.6368z m273.6128 33.4848c-3.9424 0-7.8336 0-11.776-3.7376-3.8912-3.6864-7.7824-7.4752-7.7824-11.1616l-78.2336-245.76c0-3.7376-3.9424-7.5264-3.9424-11.264 0-3.6864 0-3.6864 3.9424-7.424 0 0 3.8912-3.7376 7.7824-3.7376h35.2256c3.8912 0 7.7312 0 11.6736 3.7376 3.9424 3.7376 3.9424 7.4752 7.8336 11.1616l58.624 208.5888L496.644608 227.84c0-3.6864 3.9424-7.424 7.8336-11.1616 3.8912-3.7376 7.8336-3.7376 15.616-3.7376h27.3408c3.9424 0 7.8848 0 15.6672 3.7376 3.8912 3.7376 3.8912 7.4752 7.8336 11.1616l54.6816 212.3264 58.624-212.3264c0-3.6864 3.8912-7.424 7.8336-11.1616 3.8912-3.7376 7.7824-3.7376 11.7248-3.7376h31.232c3.8912 0 3.8912 0 7.8336 3.7376 0 0 3.9424 3.7376 3.9424 7.4752v3.6864c0 3.7888 0 3.7888-3.9424 7.4752l-82.0736 245.8624c0 3.6352-3.8912 7.424-7.8336 11.1104-3.8912 3.7376-7.7824 3.7376-11.6736 3.7376h-31.2832c-3.9424 0-7.8336 0-15.6672-3.7376-3.8912-3.6864-3.8912-7.4752-7.7824-11.1616l-54.7328-204.8-50.7392 204.8c0 3.6864-3.9936 7.4752-7.8848 11.1616-3.84 3.7376-7.7824 3.7376-15.616 3.7376h-39.0656 0.1024z m441.6 7.4752c-19.5584 0-35.2256 0-50.7904-3.7376a510.3616 510.3616 0 0 1-39.1168-11.1616 20.3776 20.3776 0 0 1-11.776-18.6368v-18.6368c0-7.4752 3.9424-11.1616 7.8848-11.1616h7.7824l7.8336 3.6864c11.6736 3.7376 23.4496 7.4752 39.0656 11.2128 11.776 3.7376 27.3408 3.7376 43.008 3.7376 15.616 0 35.1232-3.7376 50.7392-11.264 11.776-7.3728 19.6608-18.5344 19.6608-29.696 0-7.5264-3.9936-14.9504-7.8848-22.3744-23.4496-3.7376-35.1232-11.2128-46.8992-14.8992l-50.7904-14.8992c-19.5584-3.7376-39.0656-14.9504-54.784-33.536a69.4272 69.4272 0 0 1-15.5648-44.6976c0.3072-11.5712 2.9696-22.9888 7.8336-33.536 7.0656-10.4448 16.384-19.3024 27.2896-26.0096 11.776-7.4752 23.5008-11.264 35.2256-14.9504 11.776-3.6864 27.2896-7.424 39.0656-7.424h23.5008c7.7312 0 15.616 3.7376 23.4496 3.7376 7.7824 0 11.6736 3.6864 19.456 3.6864 3.9424 0 7.8336 3.7376 15.6672 3.7376 3.8912 3.7376 7.8336 3.7376 11.7248 7.4752 3.9424 3.6864 3.9424 7.4752 3.9424 11.1616v14.848c0 7.5264-3.9424 11.264-7.8336 11.264-3.9424 0-7.8336 0-11.776-3.7376a190.2592 190.2592 0 0 0-66.4064-11.2128c-15.616 0-31.232 3.7376-46.8992 7.4752-11.7248 11.1616-19.5584 18.6368-19.5584 33.4848 0 7.4752 3.9424 14.9504 11.776 22.3744 11.6736 7.424 23.4496 14.9504 39.0656 18.5856l46.8992 14.9504c19.5072 3.6864 39.0656 14.848 54.7328 29.7984 11.7248 14.8992 15.616 29.7472 15.616 44.6464 0 11.2128-3.8912 26.112-7.8336 37.2736-7.7824 11.1616-15.6672 22.3232-23.4496 29.7472-11.7248 7.4752-23.5008 14.9504-39.1168 18.688h-50.7392z" fill="#252F3E" p-id="7073"></path><path d="M972.036608 690.1248c-117.8624 99.1232-288.512 154.6752-434.7904 154.6752-194.9696 0-385.8944-83.3024-532.224-233.984-12.1344-11.9296 0-27.8016 12.2368-19.8656 162.5088 107.1104 345.344 162.6624 532.224 162.6624 138.1376 0 276.2752-31.744 406.272-95.232 20.3264-7.936 36.5568 15.872 16.2304 31.744h0.0512z" fill="#FF9900" p-id="7074"></path><path d="M966.967808 645.3248c-17.7152-22.3744-105.984-8.96-145.7664-4.4544-13.2096 0-13.2096-8.96-4.4032-17.92 70.656-49.152 189.9008-35.84 203.1104-17.92s-4.4032 138.752-70.656 192.4096c-8.8064 8.96-22.016 4.5568-13.2096-8.9088 13.2096-35.84 48.5376-120.832 30.9248-143.2064z" fill="#FF9900" p-id="7075"></path></svg>