<?xml version="1.0" encoding="UTF-8"?>
<svg width="16px" height="16px" viewBox="0 0 16 16" version="1.1" xmlns="http://www.w3.org/2000/svg" xmlns:xlink="http://www.w3.org/1999/xlink">
    <title>BAIDU_CLOUD</title>
    <g id="页面-1" stroke="none" stroke-width="1" fill="none" fill-rule="evenodd">
        <g id="BAIDU_CLOUD" transform="translate(0.25, 0.25)" fill-rule="nonzero">
            <rect id="矩形" stroke-opacity="0" stroke="#979797" stroke-width="0.5" fill="#F5F9FF" x="0" y="0" width="15.5" height="15.5" rx="2"></rect>
            <g id="编组" transform="translate(2.8084, 2.1042)">
                <path d="M2.00735922,7.20401015 L2.00735922,5.08340077 C2.00735922,4.66932984 1.80209329,4.28144802 1.44110838,4.07405865 L0,3.22043552 L0,8.36836344 C0,8.49789331 0.0771516765,8.62671538 0.179784641,8.67909358 L4.60715837,11.2654443 L4.60715837,9.58438711 C4.60715837,9.17031618 4.40118463,8.78243436 4.04090753,8.57504499 L2.18785167,7.51544811 C2.08451089,7.43758862 2.00735922,7.33424784 2.00735922,7.20471797" id="路径" fill="#008DD5"></path>
                <path d="M7.69605669,7.5147403 L5.84229301,8.60123409 C5.48201591,8.80791565 5.27604217,9.19579747 5.27604217,9.60986839 L5.27604217,11.2916334 L9.7034159,8.70457487 C9.8143492,8.64069639 9.88285609,8.52256245 9.88320054,8.39455254 L9.88320054,3.22043552 L8.44209216,4.04857736 C8.08181507,4.25525892 7.87584133,4.64314074 7.87584133,5.05721167 L7.87584133,7.17852886 C7.87584133,7.33424784 7.79868965,7.43688081 7.69605669,7.5147403" id="路径" fill="#EE3306"></path>
                <path d="M7.05194636,1.12530742 L5.1988905,0.0388136265 C5.08437346,-0.0129378755 4.95313044,-0.0129378755 4.8386134,0.0388136265 L0.411947484,2.62587214 L1.85305586,3.45401399 C2.21404077,3.66069554 2.65076173,3.66069554 2.98555754,3.45401399 L4.8386134,2.36681238 C4.8648025,2.34133109 4.89028379,2.34133109 4.91647289,2.34133109 C5.01038913,2.31099458 5.11260798,2.32019428 5.19959831,2.36681238 L7.05194636,3.45330617 C7.41293127,3.66069554 7.85036004,3.66069554 8.18444803,3.45330617 L9.62626422,2.62516432 L7.05194636,1.12530742 Z" id="路径" fill="#5AB200"></path>
            </g>
        </g>
    </g>
</svg>