<?xml version="1.0" encoding="UTF-8"?>
<svg width="63px" height="64px" viewBox="0 0 63 64" version="1.1" xmlns="http://www.w3.org/2000/svg" xmlns:xlink="http://www.w3.org/1999/xlink">
    <title>BAIDU_ACCOUNT</title>
    <g id="页面-1" stroke="none" stroke-width="1" fill="none" fill-rule="evenodd">
        <g id="BAIDU_ACCOUNT" transform="translate(0, 0.3445)" fill-rule="nonzero">
            <circle id="椭圆形" fill="#FFFFFF" cx="31.45" cy="31.45" r="31.45"></circle>
            <g id="编组" transform="translate(13.7266, 11.2008)">
                <path d="M7.19955157,25.8377485 L7.19955157,18.2320163 C7.19955157,16.7469184 6.46334919,15.3557498 5.16864845,14.6119315 L0,11.550345 L0,30.0137931 C0,30.4783622 0.276710551,30.9403926 0.644811742,31.1282512 L16.5239355,40.4044012 L16.5239355,34.3751575 C16.5239355,32.8900596 15.7851945,31.498891 14.4930324,30.7550727 L7.84690194,26.9547452 C7.47626212,26.6754961 7.19955157,26.3048562 7.19955157,25.8402871" id="路径" fill="#008DD5"></path>
                <path d="M27.6025121,26.9522066 L20.953843,30.849002 C19.6616809,31.5902816 18.9229399,32.9814503 18.9229399,34.4665482 L18.9229399,40.4983304 L34.8020636,31.2196418 C35.1999346,30.9905366 35.44564,30.5668399 35.4468754,30.1077223 L35.4468754,11.550345 L30.2782269,14.5205409 C28.9860648,15.2618205 28.2473238,16.6529891 28.2473238,18.1380871 L28.2473238,25.7463579 C28.2473238,26.3048562 27.9706133,26.6729574 27.6025121,26.9522066" id="路径" fill="#EE3306"></path>
                <path d="M25.2923598,4.03600349 L18.6462293,0.139208121 C18.235505,-0.0464027071 17.7647915,-0.0464027071 17.3540672,0.139208121 L1.47748202,9.41789677 L6.64613047,12.3880926 C7.94083121,13.1293722 9.50716525,13.1293722 10.7079367,12.3880926 L17.3540672,8.48875859 C17.4479965,8.39736795 17.5393871,8.39736795 17.6333164,8.39736795 C17.9701543,8.28856366 18.3367703,8.32155909 18.6487679,8.48875859 L25.2923598,12.385554 C26.5870605,13.1293722 28.1559332,13.1293722 29.354166,12.385554 L34.5253531,9.41535814 L25.2923598,4.03600349 Z" id="路径" fill="#5AB200"></path>
            </g>
        </g>
    </g>
</svg>