<?xml version="1.0" standalone="no"?><!DOCTYPE svg PUBLIC "-//W3C//DTD SVG 1.1//EN" "http://www.w3.org/Graphics/SVG/1.1/DTD/svg11.dtd"><svg t="1728630546345" class="icon" viewBox="0 0 1024 1024" version="1.1" xmlns="http://www.w3.org/2000/svg" p-id="42284" xmlns:xlink="http://www.w3.org/1999/xlink" width="256" height="256"><path d="M480.768 170.6496c138.752 0 257.024 84.224 304.128 202.752 134.144 13.9776 239.104 125.0304 239.104 259.072 0 144.4352-120.32 261.0176-268.288 261.0176h-512C109.056 893.44 0 787.4048 0 656.384c0-102.144 66.048-189.3376 159.232-223.232 26.624-148.8896 160.768-262.5024 321.536-262.5024z m143.7184 407.8592H338.0224c-19.7632 0-35.84 12.6976-35.84 28.416 0 15.7184 16.0768 28.4672 35.84 28.4672h286.464c19.7632 0 35.84-12.7488 35.84-28.4672 0-15.7184-16.0768-28.416-35.84-28.416zM471.808 464.6912l-135.7312 0.256c-18.7392 0-33.8944 12.7488-33.8432 28.3648 0 15.616 15.2064 28.3136 33.8944 28.3136l135.7312-0.256c18.7392 0 33.8944-12.7488 33.8432-28.3648 0-15.616-15.2064-28.3136-33.8944-28.3136z" fill="#2C47FF" p-id="42285"></path></svg>