<?xml version="1.0" standalone="no"?><!DOCTYPE svg PUBLIC "-//W3C//DTD SVG 1.1//EN" "http://www.w3.org/Graphics/SVG/1.1/DTD/svg11.dtd"><svg t="1728631418380" class="icon" viewBox="0 0 1024 1024" version="1.1" xmlns="http://www.w3.org/2000/svg" p-id="43761" xmlns:xlink="http://www.w3.org/1999/xlink" width="256" height="256"><path d="M0 0m76.8 0l870.4 0q76.8 0 76.8 76.8l0 870.4q0 76.8-76.8 76.8l-870.4 0q-76.8 0-76.8-76.8l0-870.4q0-76.8 76.8-76.8Z" fill="#2C47FF" p-id="43762" data-spm-anchor-id="a313x.search_index.0.i24.32b93a81QpJS3Z" class="selected"></path><path d="M693.9136 462.464a190.3872 190.3872 0 0 0-187.1872-151.7568c-73.344 0-136.6016 40.448-166.9376 101.12-78.3872 10.1632-136.6016 73.3952-136.6016 151.7824 0 83.456 68.3008 151.7568 151.7824 151.7568H683.776c70.8352 0 126.464-55.6032 126.464-126.464 0-65.7408-53.12-121.3952-116.3264-126.464" fill="#FFFFFF" p-id="43763"></path></svg>