<?xml version="1.0" standalone="no"?><!DOCTYPE svg PUBLIC "-//W3C//DTD SVG 1.1//EN" "http://www.w3.org/Graphics/SVG/1.1/DTD/svg11.dtd"><svg t="1728630557925" class="icon" viewBox="0 0 1024 1024" version="1.1" xmlns="http://www.w3.org/2000/svg" p-id="42466" xmlns:xlink="http://www.w3.org/1999/xlink" width="256" height="256"><path d="M473.6 121.6c108.8 0 211.2 70.4 249.6 172.8 147.2 6.4 256 134.4 249.6 275.2-83.2-108.8-236.8-121.6-345.6-38.4-89.6 76.8-115.2 192-76.8 294.4H256C134.4 825.6 38.4 729.6 38.4 608c0-102.4 70.4-192 172.8-217.6 0-147.2 121.6-268.8 262.4-268.8z" fill="#2C47FF" p-id="42467"></path><path d="M812.8 576c6.4 0 6.4 0 6.4 6.4l6.4 44.8c12.8 6.4 19.2 6.4 25.6 12.8l44.8-19.2c6.4 0 6.4 0 12.8 6.4l32 57.6v12.8l-32 25.6v25.6l32 25.6s6.4 6.4 0 12.8l-32 57.6c0 6.4-6.4 6.4-12.8 6.4l-38.4-19.2c-6.4 6.4-19.2 12.8-25.6 12.8l-6.4 44.8c0 6.4-6.4 6.4-6.4 6.4h-64c-6.4 0-6.4 0-6.4-6.4l-6.4-44.8c-12.8-6.4-19.2-6.4-25.6-12.8l-38.4 19.2c-6.4 0-6.4 0-12.8-6.4l-32-57.6v-12.8l32-25.6v-12.8-12.8l-32-25.6s-6.4-6.4 0-12.8l32-57.6c0-6.4 6.4-6.4 12.8-6.4l38.4 19.2c6.4-6.4 19.2-12.8 25.6-12.8l6.4-44.8c-6.4-6.4 0-6.4 0-6.4h64z m-32 102.4c-32 0-57.6 25.6-57.6 57.6s25.6 57.6 57.6 57.6 57.6-25.6 57.6-57.6-25.6-57.6-57.6-57.6z" fill="#2C47FF" opacity=".5" p-id="42468"></path></svg>