<?xml version="1.0" standalone="no"?><!DOCTYPE svg PUBLIC "-//W3C//DTD SVG 1.1//EN" "http://www.w3.org/Graphics/SVG/1.1/DTD/svg11.dtd"><svg t="1728629864291" class="icon" viewBox="0 0 1024 1024" version="1.1" xmlns="http://www.w3.org/2000/svg" p-id="34952" id="mx_n_1728629864292" width="256" height="256" xmlns:xlink="http://www.w3.org/1999/xlink"><path d="M863 336.9V863H161.4V336.9H863m48-64H97.4V911c0 8.8 7.2 16 16 16H911c8.8 0 16-7.2 16-16V288.9c0-8.8-7.2-16-16-16z" fill="#3A64FF" p-id="34953"></path><path d="M863 543.6V676H576.5V543.6H863m61.7-64H528.5c-8.8 0-16 7.2-16 16V724c0 8.8 7.2 16 16 16h396.2c1.3 0 2.3-1 2.3-2.3V481.9c0-1.3-1-2.3-2.3-2.3zM162 332.2H98V170.9c0-8.8 7.2-16 16-16h652.4c8.8 0 16 7.2 16 16v155.8h-64V218.9H162v113.3z" fill="#3A64FF" p-id="34954"></path><path d="M646.4 551.4c-32.2 0-58.3 26.2-58.3 58.3s26.2 58.3 58.3 58.3 58.3-26.2 58.3-58.3-26.1-58.3-58.3-58.3z m0 76.7c-10.1 0-18.3-8.2-18.3-18.3s8.2-18.3 18.3-18.3 18.3 8.2 18.3 18.3-8.1 18.3-18.3 18.3z" fill="#3A64FF" p-id="34955"></path></svg>