<?xml version="1.0" encoding="UTF-8"?>
<svg width="30px" height="27px" viewBox="0 0 30 27" version="1.1" xmlns="http://www.w3.org/2000/svg" xmlns:xlink="http://www.w3.org/1999/xlink">
    <title>形状结合</title>
    <g id="修改" stroke="none" stroke-width="1" fill="none" fill-rule="evenodd">
        <path d="M17.2828359,12.9513933 C18.9396902,12.9513933 20.2828359,14.2945391 20.2828359,15.9513933 L20.2828359,23.9513933 C20.2828359,25.6082476 18.9396902,26.9513933 17.2828359,26.9513933 L12.7114073,26.9513933 C11.0545531,26.9513933 9.71140734,25.6082476 9.71140734,23.9513933 L9.71140734,15.9513933 C9.71140734,14.2945391 11.0545531,12.9513933 12.7114073,12.9513933 L17.2828359,12.9513933 Z M18.2821216,20.9506104 L11.7111216,20.9506104 L11.7114073,23.9513933 C11.7114073,24.5036781 12.1591226,24.9513933 12.7114073,24.9513933 L17.2828359,24.9513933 C17.8351207,24.9513933 18.2828359,24.5036781 18.2828359,23.9513933 L18.2821216,20.9506104 Z M16.0325838,21.937542 L16.0325838,23.937542 L14.031605,23.937542 L14.031605,21.937542 L16.0325838,21.937542 Z M14.9922447,0.818610384 C19.0782646,0.818610384 22.467755,3.90376642 23.2945323,7.99802706 C26.7800717,8.39735569 29.4873678,11.3582131 29.4873678,14.9513933 C29.4873678,18.8173866 26.3533611,21.9513933 22.4873678,21.9513933 L22.4873678,19.9513933 C25.2487916,19.9513933 27.4873678,17.7128171 27.4873678,14.9513933 C27.4873678,12.1899696 25.2487916,9.95139331 22.4873678,9.95139331 L22.4871216,9.93761038 L21.4873678,9.9382045 C21.4873678,5.98908022 18.5607361,2.81861038 14.9922447,2.81861038 C11.4237533,2.81861038 8.49712162,5.98908022 8.49712162,9.9382045 L7.49712162,9.93761038 L7.49712162,9.95139331 C4.73569787,9.95139331 2.49712162,12.1899696 2.49712162,14.9513933 C2.49712162,17.7128171 4.73569787,19.9513933 7.49712162,19.9513933 L7.49712162,21.9513933 C3.63112837,21.9513933 0.497121622,18.8173866 0.497121622,14.9513933 C0.497121622,11.3583463 3.20421685,8.39757535 6.69007413,7.9974135 C7.51673444,3.90376642 10.9062248,0.818610384 14.9922447,0.818610384 Z M17.2828359,14.9513933 L12.7114073,14.9513933 C12.1591226,14.9513933 11.7114073,15.3991086 11.7114073,15.9513933 L11.7111216,18.9506104 L18.2821216,18.9506104 L18.2828359,15.9513933 C18.2828359,15.3991086 17.8351207,14.9513933 17.2828359,14.9513933 Z M16.0325838,15.9652446 L16.0325838,17.9652446 L14.031605,17.9652446 L14.031605,15.9652446 L16.0325838,15.9652446 Z" id="形状结合" fill="#979797" fill-rule="nonzero"></path>
    </g>
</svg>