<?xml version="1.0" encoding="UTF-8"?>
<svg width="12px" height="12px" viewBox="0 0 12 12" version="1.1" xmlns="http://www.w3.org/2000/svg" xmlns:xlink="http://www.w3.org/1999/xlink">
    <title>编组</title>
    <g id="最终" stroke="none" stroke-width="1" fill="none" fill-rule="evenodd">
        <g id="画板备份-32" transform="translate(-1095, -174)" fill="#457AFF" fill-rule="nonzero">
            <g id="编组-19" transform="translate(1086, 164)">
                <g id="编组-18" transform="translate(9, 7)">
                    <g id="编组" transform="translate(0, 3)">
                        <path d="M7.44519942,11.9975231 L1.98333488,11.9975231 C0.889743145,11.9975231 0,11.0934517 0,9.98224883 L0,2.01527427 C-0.000304628289,0.904071418 0.889438438,0 1.98333488,0 L7.11185048,0 C8.20544221,0 9.09518528,0.904071418 9.09518528,2.01527427 L9.09518528,5.95835698 C9.09518528,6.23622356 8.87349992,6.46147892 8.60003717,6.46147892 C8.32657442,6.46147892 8.10488906,6.23622356 8.10488906,5.95835698 L8.10488906,2.01527427 C8.10430127,1.45824975 7.66004689,1.00684113 7.11185048,1.00624387 L1.98333488,1.00624387 C1.43513847,1.00684113 0.990884088,1.45824975 0.9902963,2.01527427 L0.9902963,9.98224883 C0.990884088,10.5392733 1.43513847,10.990682 1.98333488,10.9912792 L7.44519942,10.9912792 C7.71866217,10.9912792 7.94034753,11.2165346 7.94034753,11.4944012 C7.94034753,11.7722677 7.71866217,11.9975231 7.44519942,11.9975231 L7.44519942,11.9975231 Z" id="路径"></path>
                        <path d="M6.70400079,3.04195263 L2.39103222,3.04195263 C2.11756947,3.04195263 1.89588411,2.81669727 1.89588411,2.53883069 C1.89588411,2.26096412 2.11756947,2.03570876 2.39103222,2.03570876 L6.70400079,2.03570876 C6.97746354,2.03570876 7.1991489,2.26096412 7.1991489,2.53883069 C7.1991489,2.81669727 6.97746354,3.04195263 6.70400079,3.04195263 L6.70400079,3.04195263 Z M6.70400079,4.8531916 L2.39103222,4.8531916 C2.11756947,4.8531916 1.89588411,4.62793624 1.89588411,4.35006966 C1.89588411,4.07220309 2.11756947,3.84694773 2.39103222,3.84694773 L6.70400079,3.84694773 C6.97746354,3.84694773 7.1991489,4.07220309 7.1991489,4.35006966 C7.1991489,4.62793624 6.97746354,4.8531916 6.70400079,4.8531916 L6.70400079,4.8531916 Z M4.54286973,6.66443057 L2.39103222,6.66443057 C2.11756947,6.66443057 1.89588411,6.43917521 1.89588411,6.16130863 C1.89588411,5.88344206 2.11756947,5.6581867 2.39103222,5.6581867 L4.54286973,5.6581867 C4.81633248,5.6581867 5.03801784,5.88344206 5.03801784,6.16130863 C5.03801784,6.43917521 4.81633248,6.66443057 4.54286973,6.66443057 L4.54286973,6.66443057 Z" id="形状"></path>
                        <path d="M7.62802334,8.8394654 C7.62802334,9.40374829 8.07821515,9.86118995 8.63355489,9.86118995 C9.18889463,9.86118995 9.63908644,9.40374829 9.63908644,8.8394654 C9.63908644,8.27518251 9.18889463,7.81774085 8.63355489,7.81774085 C8.07821515,7.81774085 7.62802334,8.27518251 7.62802334,8.8394654 L7.62802334,8.8394654 Z" id="路径"></path>
                        <path d="M9.60968226,12 L7.61141684,12 C7.11442063,11.9992365 6.65530931,11.7300175 6.4059978,11.2931524 L5.40686509,9.5343929 C5.15913,9.09661214 5.15913,8.558014 5.40686509,8.12023324 L6.4059978,6.36178337 C6.65529356,5.92488193 7.11439768,5.65560816 7.61141684,5.65478095 L9.60968226,5.65478095 C10.1066637,5.65559987 10.5657262,5.92488322 10.8149489,6.36178337 L11.8140816,8.11961402 C12.0619728,8.55735243 12.0619728,9.09603526 11.8140816,9.53377367 L10.8149489,11.2931524 C10.5656876,11.729993 10.1066324,11.9992131 9.60968226,12 L9.60968226,12 Z M7.61141684,6.66102482 C7.46786264,6.66136688 7.33534407,6.7393392 7.26359433,6.86567934 L6.26446162,8.62335518 C6.19293735,8.74961589 6.19293735,8.90501026 6.26446162,9.03127096 L7.26359433,10.7897208 C7.33552138,10.9157994 7.46799649,10.9935103 7.61141684,10.9937561 L9.60968226,10.9937561 C9.75306493,10.9935186 9.88549835,10.9157982 9.95735241,10.7897208 L10.9569422,9.03127096 C11.028404,8.90499331 11.028404,8.74963283 10.9569422,8.62335518 L9.95735241,6.86567934 C9.88548261,6.73963833 9.75304198,6.66197259 9.60968226,6.66179885 L7.61141684,6.66102482 Z" id="形状"></path>
                    </g>
                </g>
            </g>
        </g>
    </g>
</svg>