<?xml version="1.0" standalone="no"?><!DOCTYPE svg PUBLIC "-//W3C//DTD SVG 1.1//EN" "http://www.w3.org/Graphics/SVG/1.1/DTD/svg11.dtd"><svg t="1728872197174" class="icon" viewBox="0 0 1024 1024" version="1.1" xmlns="http://www.w3.org/2000/svg" p-id="17569" xmlns:xlink="http://www.w3.org/1999/xlink" width="256" height="256"><path d="M827.52 782.08a39.84 39.84 0 0 0 56.64 0l104.32-103.36a119.68 119.68 0 0 0 0-170.08l-102.08-102.72a40 40 0 0 0-56.8 56.16l90.88 92H598.08a40 40 0 0 0 0 80h322.24l-92.48 91.52a40 40 0 0 0-0.32 56.48z" fill="#1480ED" p-id="17570"></path><path d="M864 80h-52V40a40 40 0 0 0-80 0V80H550.08V40a40 40 0 0 0-80 0V80H290.08V40a40 40 0 1 0-80 0V80H160A160 160 0 0 0 0 240v624a160 160 0 0 0 160 160h704a160 160 0 0 0 160-160 40 40 0 0 0-80 0 80 80 0 0 1-80 80H160a80 80 0 0 1-80-80V240a80 80 0 0 1 80-80h50.08v40a40 40 0 0 0 80 0V160h180v40a40 40 0 0 0 80 0V160h181.92v40a40 40 0 0 0 80 0V160H864a80 80 0 0 1 80 80v90.08a40 40 0 0 0 80 0V240A160 160 0 0 0 864 80z" fill="#2A5699" p-id="17571"></path></svg>