<?xml version="1.0" encoding="UTF-8"?>
<svg width="12px" height="12px" viewBox="0 0 12 12" version="1.1" xmlns="http://www.w3.org/2000/svg" xmlns:xlink="http://www.w3.org/1999/xlink">
    <title>形状</title>
    <g id="修改" stroke="none" stroke-width="1" fill="none" fill-rule="evenodd">
        <g id="画板备份-23" transform="translate(-265, -180)" fill="#E22929" fill-rule="nonzero">
            <g id="编组-9" transform="translate(224, 60)">
                <g id="编组-11" transform="translate(26, 23)">
                    <g id="编组-40备份-2" transform="translate(14, 92)">
                        <path d="M7,5 C10.31365,5 13,7.68634999 13,11 C13,14.31365 10.31365,17 7,17 C3.68635001,17 1,14.31365 1,11 C1,7.68635001 3.68635001,5 7,5 Z M9.0976,8.13455001 L6.046,9.23315 C5.6674323,9.36947425 5.36940439,9.66755716 5.23315,10.04615 L4.13455001,13.0976 C4.05575632,13.3163082 4.11038981,13.5608497 4.27477006,13.7252299 C4.43915032,13.8896102 4.68369177,13.9442437 4.9024,13.86545 L7.954,12.76685 C8.3325677,12.6305258 8.63059561,12.3324428 8.76685,11.95385 L9.86544999,8.9024 C9.94424368,8.68369177 9.88961019,8.43915032 9.72522994,8.27477006 C9.56084968,8.11038981 9.31630823,8.05575632 9.0976,8.13455001 L9.0976,8.13455001 Z M7,11.75 C7.41421356,11.75 7.75000004,11.4142136 7.75000004,11 C7.75000004,10.5857864 7.41421356,10.25 7,10.25 C6.58578645,10.25 6.25000004,10.5857865 6.25000004,11 C6.25000004,11.4142135 6.58578645,11.75 7,11.75 L7,11.75 Z" id="形状"></path>
                    </g>
                </g>
            </g>
        </g>
    </g>
</svg>