<?xml version="1.0" standalone="no"?><!DOCTYPE svg PUBLIC "-//W3C//DTD SVG 1.1//EN" "http://www.w3.org/Graphics/SVG/1.1/DTD/svg11.dtd"><svg t="1728876818829" class="icon" viewBox="0 0 1024 1024" version="1.1" xmlns="http://www.w3.org/2000/svg" p-id="47671" xmlns:xlink="http://www.w3.org/1999/xlink" width="256" height="256"><path d="M736 128l221.482667 274.204444c2.133333 2.645333 3.171556 5.816889 3.157333 8.96H967.111111v418.901334a56.888889 56.888889 0 0 1-56.888889 56.888889H113.777778a56.888889 56.888889 0 0 1-56.888889-56.888889V411.150222h6.471111c0-3.128889 1.024-6.300444 3.157333-8.931555L288 128h448zM285.923556 439.608889H85.333333v390.456889a28.444444 28.444444 0 0 0 28.444445 28.444444h796.444444a28.444444 28.444444 0 0 0 28.444445-28.444444V439.594667H751.047111a14.222222 14.222222 0 0 0-14.222222 14.222222v18.104889a71.111111 71.111111 0 0 1-71.111111 71.111111H371.256889a71.111111 71.111111 0 0 1-71.111111-71.111111v-18.104889a14.222222 14.222222 0 0 0-14.222222-14.222222zM722.417778 156.444444h-420.835556L95.843556 411.150222h190.08a42.666667 42.666667 0 0 1 42.666666 42.666667v18.104889a42.666667 42.666667 0 0 0 42.666667 42.666666h294.456889a42.666667 42.666667 0 0 0 42.666666-42.666666v-18.104889a42.666667 42.666667 0 0 1 42.666667-42.666667H928.142222L722.417778 156.444444z" fill="#FFFFFF" p-id="47672"></path></svg>