<?xml version="1.0" encoding="UTF-8"?>
<svg width="12px" height="14px" viewBox="0 0 12 14" version="1.1" xmlns="http://www.w3.org/2000/svg" xmlns:xlink="http://www.w3.org/1999/xlink">
    <title>编组</title>
    <g id="最终" stroke="none" stroke-width="1" fill="none" fill-rule="evenodd">
        <g id="画板备份-32" transform="translate(-1196, -173)" fill="#FFFFFF">
            <g id="编组-16" transform="translate(1176, 164)">
                <g id="编组" transform="translate(20, 9)">
                    <path d="M7.54526316,0 C8.95911212,-2.5971984e-16 10.1052632,1.14615104 10.1052632,2.56 L10.1059565,6.68240568 C9.12548417,6.27098365 7.99472572,6.24518854 6.95550369,6.67892864 C5.14618511,7.43408395 4.11825221,9.37185693 4.50034841,11.3071817 C4.65771489,12.104246 5.03620066,12.8094636 5.5637879,13.36329 L2.56,13.3636364 C1.14615104,13.3636364 1.7314656e-16,12.2174853 0,10.8036364 L0,2.56 C-1.7314656e-16,1.14615104 1.14615104,-1.84369369e-16 2.56,-4.4408921e-16 L7.54526316,0 Z M6.51057759,3.12732382 L5.79389483,4.60955122 L4.3605293,3.86843752 C4.13255136,3.75057998 3.85534548,3.84613182 3.74134654,4.08186752 L2.81826952,5.99095494 C2.74669573,6.13886377 2.75427621,6.31454805 2.83830425,6.45527739 C2.92233229,6.59600672 3.0708282,6.68171765 3.23076956,6.68180598 C3.40571749,6.68187895 3.56566668,6.57965794 3.64384653,6.41781495 L4.3605293,4.93558755 L5.79389483,5.67670125 C6.02187276,5.79455878 6.29907864,5.69900694 6.41307758,5.46327124 L7.3361546,3.55418383 C7.44682911,3.31897067 7.3537931,3.03546197 7.12754264,2.91848043 C6.90129218,2.80149888 6.62614035,2.8946381 6.51057759,3.12732382 Z" id="形状结合"></path>
                    <path d="M11.4145285,8.55573896 C12.3351886,9.94400633 12.1543523,11.7942253 10.9826119,12.9748745 C10.3326503,13.6333736 9.44823724,14.002501 8.52651804,13.9999872 C6.86940681,13.9999872 5.44304018,12.8205823 5.11972801,11.1829999 C4.79641583,9.5454174 5.66620521,7.90576334 7.19716709,7.26678578 C8.72812896,6.62780821 10.4938684,7.16747159 11.4145285,8.55573896 Z M7.91309388,9.2472304 C7.83254599,9.29073257 7.78225486,9.37532898 7.78220014,9.46741106 L7.78220014,11.5329225 C7.78214071,11.6251616 7.83249679,11.7099389 7.9132037,11.7534744 C7.99391062,11.7970099 8.09185297,11.7922288 8.16800494,11.7410361 L9.7050213,10.7081241 C9.7740064,10.6617538 9.81543762,10.5837225 9.81543762,10.5001668 C9.81543762,10.4166111 9.7740064,10.3385798 9.7050213,10.2922095 L8.16753975,9.2592975 C8.09140333,9.20836457 7.99364176,9.20372823 7.91309388,9.2472304 Z" id="形状结合" fill-rule="nonzero"></path>
                </g>
            </g>
        </g>
    </g>
</svg>