<?xml version="1.0" encoding="UTF-8"?>
<svg width="8px" height="8px" viewBox="0 0 8 8" version="1.1" xmlns="http://www.w3.org/2000/svg" xmlns:xlink="http://www.w3.org/1999/xlink">
    <title>失败</title>
    <g id="最终" stroke="none" stroke-width="1" fill="none" fill-rule="evenodd">
        <g id="画板备份-2" transform="translate(-69, -15)" fill="#FF3931" fill-rule="nonzero">
            <g id="失败" transform="translate(69, 15)">
                <path d="M4,0 C6.2091,0 8,1.7909 8,4 C8,6.2091 6.2091,8 4,8 C1.7909,8 0,6.2091 0,4 C0,1.7909 1.7909,0 4,0 Z M3.1893,2.784 C3.11710102,2.71060781 3.01108453,2.68157904 2.91156815,2.70795321 C2.81205178,2.73432737 2.73432737,2.81205178 2.70795321,2.91156815 C2.68157904,3.01108453 2.71060781,3.11710102 2.784,3.1893 L3.5947,4 L2.784,4.8107 C2.71060781,4.88289898 2.68157904,4.98891547 2.70795321,5.08843185 C2.73432737,5.18794822 2.81205178,5.26567263 2.91156815,5.29204679 C3.01108453,5.31842096 3.11710102,5.28939219 3.1893,5.216 L4,4.4053 L4.8107,5.216 C4.88289898,5.28939219 4.98891547,5.31842096 5.08843185,5.29204679 C5.18794822,5.26567263 5.26567263,5.18794822 5.29204679,5.08843185 C5.31842096,4.98891547 5.28939219,4.88289898 5.216,4.8107 L4.4053,4 L5.216,3.1893 C5.28939219,3.11710102 5.31842096,3.01108453 5.29204679,2.91156815 C5.26567263,2.81205178 5.18794822,2.73432737 5.08843185,2.70795321 C4.98891547,2.68157904 4.88289898,2.71060781 4.8107,2.784 L4,3.5947 L3.1893,2.784 Z" id="形状"></path>
            </g>
        </g>
    </g>
</svg>