<?xml version="1.0" encoding="UTF-8"?>
<svg width="16px" height="16px" viewBox="0 0 16 16" version="1.1" xmlns="http://www.w3.org/2000/svg" xmlns:xlink="http://www.w3.org/1999/xlink">
    <title>alibabacloud-outlined备份</title>
    <g id="最终" stroke="none" stroke-width="1" fill="none" fill-rule="evenodd">
        <g id="画板" transform="translate(-83, -17)">
            <g id="alibabacloud-outlined备份" transform="translate(83, 17)">
                <rect id="矩形" stroke-opacity="0" stroke="#979797" stroke-width="0.5" fill="#F6F9FF" x="0.25" y="0.25" width="15.5" height="15.5" rx="2"></rect>
                <g id="GCP" transform="translate(1.3733, 2.7723)" fill-rule="nonzero">
                    <path d="M6.76666666,0.0010323999 C4.43333332,-0.0456342759 2.42666666,1.49436572 1.72666666,3.68769906 C2.28666666,3.31436572 3.03333332,3.0810324 3.78,3.0810324 C4.06,3.0810324 4.34,3.12769906 4.62,3.17436572 C5.13333334,2.61436572 5.83333334,2.28769906 6.62666666,2.2410324 C7.23333332,2.19436574 7.84,2.3810324 8.35333332,2.75436572 L9.66,1.02769906 C8.82,0.374365724 7.79333334,0.0010323999 6.76666666,0.0010323999 Z" id="路径" fill="#EA4335"></path>
                    <path d="M6.76666666,8.21436572 L6.76666666,10.4543657 L3.78,10.4543657 C3.12666666,10.4543657 2.47333334,10.2676991 1.96,9.9410324 L3.31333332,8.1210324 C3.40666666,8.1210324 3.49999999,8.16769906 3.54666666,8.16769906 C3.64,8.21436572 3.73333332,8.21436572 3.82666666,8.21436572 L6.76666666,8.21436572 Z" id="路径" fill="#34A853"></path>
                    <path d="M9.47333332,10.4543657 L6.76666666,10.4543657 L6.72,8.21436572 L9.42666666,8.21436572 C11.3866667,8.26103239 11.3866667,5.32103239 9.52,5.36769906 L9.52,5.08769906 C9.52,4.3410324 9.24,3.59436572 8.72666666,3.0810324 L8.72666666,3.03436572 C8.68,2.94103239 8.58666666,2.94103239 8.49333332,2.84769906 C8.44666666,2.8010324 8.39999999,2.75436572 8.30666666,2.75436572 L9.61333332,1.02769906 C9.75333332,1.1210324 9.84666666,1.21436572 9.94,1.30769906 L10.22,1.58769906 L10.3133333,1.6810324 C10.8733333,2.2410324 11.2466667,2.98769906 11.48,3.7810324 C14.6066667,5.78769906 13.1133333,10.5010324 9.47333332,10.4543657 L9.47333332,10.4543657 Z" id="路径" fill="#4285F4"></path>
                    <path d="M6.34666666,4.15436572 C6.48666666,4.29436572 6.62666666,4.43436572 6.72,4.57436572 L5.08666666,6.20769906 C4.80666666,5.6010324 4.2,5.27436572 3.59333332,5.36769906 C2.93999999,5.4610324 2.47333332,5.97436572 2.38,6.5810324 C2.28666666,7.18769906 2.61333334,7.79436574 3.17333332,8.07436572 L3.22,8.1210324 L1.86666666,9.9410324 C1.77333332,9.89436574 1.63333332,9.8010324 1.54,9.75436572 C0.606666662,9.10103239 0,7.98103239 0,6.76769906 C0,5.4610324 0.653333338,4.3410324 1.63333332,3.68769906 C2.19333332,3.31436572 2.93999999,3.0810324 3.68666666,3.0810324 C3.96666666,3.0810324 4.24666666,3.12769906 4.52666666,3.17436572 C4.85333332,3.26769906 5.13333332,3.36103239 5.41333332,3.5010324 C5.45999999,3.54769906 5.55333332,3.59436574 5.6,3.59436572 C5.64666666,3.59436572 5.64666666,3.64103239 5.69333332,3.6410324 C5.73999999,3.68769906 5.83333332,3.73436574 5.88,3.7810324 C5.92666666,3.82769906 5.97333334,3.87436574 6.06666666,3.9210324 C6.20666666,4.01436574 6.3,4.10769906 6.34666666,4.15436572 L6.34666666,4.15436572 Z" id="路径" fill="#FBBC05"></path>
                </g>
            </g>
        </g>
    </g>
</svg>