<?xml version="1.0" encoding="UTF-8"?>
<svg width="63px" height="64px" viewBox="0 0 63 64" version="1.1" xmlns="http://www.w3.org/2000/svg" xmlns:xlink="http://www.w3.org/1999/xlink">
    <title>编组 9</title>
    <g id="最终" stroke="none" stroke-width="1" fill="none" fill-rule="evenodd">
        <g id="画板" transform="translate(-42, -52)">
            <g id="编组-9" transform="translate(42, 52.3445)">
                <circle id="椭圆形" fill="#FFFFFF" cx="31.45" cy="31.45" r="31.45"></circle>
                <g id="GCP" transform="translate(12, 9)" fill-rule="nonzero">
                    <polygon id="路径" fill-opacity="0" fill="#D8D8D8" points="0 0 40 0 40 40 0 40"></polygon>
                    <path d="M20.4,5.06666668 C13.7333333,4.93333332 8,9.33333332 6,15.6 C7.6,14.5333333 9.73333332,13.8666667 11.8666667,13.8666667 C12.6666667,13.8666667 13.4666667,14 14.2666667,14.1333333 C15.7333334,12.5333333 17.7333334,11.6 20,11.4666667 C21.7333333,11.3333334 23.4666667,11.8666667 24.9333333,12.9333333 L28.6666667,8 C26.2666667,6.13333332 23.3333334,5.06666668 20.4,5.06666668 Z" id="路径" fill="#EA4335"></path>
                    <path d="M20.4,28.5333333 L20.4,34.9333333 L11.8666667,34.9333333 C10,34.9333333 8.13333336,34.4 6.66666668,33.4666667 L10.5333333,28.2666667 C10.8,28.2666667 11.0666666,28.4 11.2,28.4 C11.4666667,28.5333333 11.7333333,28.5333333 12,28.5333333 L20.4,28.5333333 Z" id="路径" fill="#34A853"></path>
                    <path d="M28.1333333,34.9333333 L20.4,34.9333333 L20.2666667,28.5333333 L28,28.5333333 C33.6,28.6666666 33.6,20.2666666 28.2666667,20.4 L28.2666667,19.6 C28.2666667,17.4666667 27.4666667,15.3333333 26,13.8666667 L26,13.7333333 C25.8666667,13.4666666 25.6,13.4666666 25.3333333,13.2 C25.2,13.0666667 25.0666666,12.9333333 24.8,12.9333333 L28.5333333,8 C28.9333333,8.26666668 29.2,8.53333332 29.4666667,8.8 L30.2666667,9.6 L30.5333333,9.86666668 C32.1333333,11.4666667 33.2,13.6 33.8666667,15.8666667 C42.8,21.6 38.5333334,35.0666667 28.1333333,34.9333333 L28.1333333,34.9333333 Z" id="路径" fill="#4285F4"></path>
                    <path d="M19.2,16.9333333 C19.6,17.3333333 20,17.7333333 20.2666667,18.1333333 L15.6,22.8 C14.8,21.0666667 13.0666667,20.1333333 11.3333333,20.4 C9.46666664,20.6666667 8.13333332,22.1333333 7.86666668,23.8666667 C7.6,25.6 8.53333336,27.3333334 10.1333333,28.1333333 L10.2666667,28.2666667 L6.4,33.4666667 C6.13333332,33.3333334 5.73333332,33.0666667 5.46666668,32.9333333 C2.8,31.0666666 1.06666668,27.8666667 1.06666668,24.4 C1.06666668,20.6666667 2.93333336,17.4666667 5.73333332,15.6 C7.33333332,14.5333333 9.46666664,13.8666667 11.6,13.8666667 C12.4,13.8666667 13.2,14 14,14.1333333 C14.9333333,14.4 15.7333333,14.6666666 16.5333333,15.0666667 C16.6666666,15.2 16.9333333,15.3333334 17.0666667,15.3333333 C17.2,15.3333333 17.2,15.4666666 17.3333333,15.4666667 C17.4666666,15.6 17.7333333,15.7333334 17.8666667,15.8666667 C18,16 18.1333334,16.1333334 18.4,16.2666667 C18.8,16.5333334 19.0666667,16.8 19.2,16.9333333 L19.2,16.9333333 Z" id="路径" fill="#FBBC05"></path>
                </g>
            </g>
        </g>
    </g>
</svg>