<?xml version="1.0" standalone="no"?><!DOCTYPE svg PUBLIC "-//W3C//DTD SVG 1.1//EN" "http://www.w3.org/Graphics/SVG/1.1/DTD/svg11.dtd"><svg t="1719395602836" class="icon" viewBox="0 0 1024 1024" version="1.1" xmlns="http://www.w3.org/2000/svg" p-id="1745" xmlns:xlink="http://www.w3.org/1999/xlink" width="200" height="200"><path d="M409.344 807.616c-77.952 68.48-142.912 102.784-194.944 102.848-52.032 0-91.712-32.192-119.04-96.64l313.984-6.272z m205.312 0l314.048 6.272c-27.392 64.384-67.072 96.576-119.104 96.576s-116.992-34.304-194.944-102.912zM6.976 538.688c120.512 64.32 197.888 106.752 232.064 127.36 34.176 20.48 92.352 57.344 174.592 110.528-130.752 8.128-216.32 8.256-256.704 0.32a210.176 210.176 0 0 1-112.96-59.52c-40.96-41.024-53.312-100.608-36.992-178.688z m1010.048 0c16.32 78.08 4.032 137.6-36.992 178.624a210.048 210.048 0 0 1-112.96 59.584c-40.32 7.936-125.952 7.808-256.64-0.32a6928.448 6928.448 0 0 1 174.528-110.592c34.24-20.48 111.616-62.976 232.064-127.296zM154.816 273.792c63.04 83.52 106.176 143.104 129.408 178.688 23.232 35.584 75.712 131.52 157.44 287.808C280.512 667.776 168.448 595.84 105.6 524.352c-45.184-51.328-45.184-135.552 6.08-207.36 7.424-10.496 21.824-24.832 43.136-43.2z m714.24 0c21.376 18.368 35.776 32.704 43.2 43.136 51.328 71.872 51.328 156.032 6.144 207.424-62.912 71.488-174.912 143.488-336.192 215.936 81.728-156.224 134.208-252.16 157.44-287.808 23.232-35.648 66.432-95.232 129.472-178.688zM438.4 128c31.488 93.12 49.28 158.848 53.376 197.12 4.096 38.336 0.64 167.04-10.24 386.112-136.96-197.12-205.44-340.224-205.44-429.184 0-88.96 54.08-140.352 162.24-154.048z m147.456 0c108.16 13.76 162.24 65.088 162.24 154.048 0 88.96-68.48 232-205.44 429.184-10.88-219.072-14.336-347.776-10.24-386.112 4.16-38.272 21.952-104 53.44-197.12z" fill="#333333" p-id="1746"></path></svg>