<?xml version="1.0" standalone="no"?><!DOCTYPE svg PUBLIC "-//W3C//DTD SVG 1.1//EN" "http://www.w3.org/Graphics/SVG/1.1/DTD/svg11.dtd"><svg t="1744771442966" class="icon" viewBox="0 0 1088 1024" version="1.1" xmlns="http://www.w3.org/2000/svg" p-id="40586" xmlns:xlink="http://www.w3.org/1999/xlink" width="212.5" height="200"><path d="M813.12 0H277.632L0 365.376 550.4 1024l530.496-653.824L813.12 0z m31.168 402.688L605.248 725.12c-5.184 9.6-20.8 14.464-36.352 14.464a49.024 49.024 0 0 1-36.352-14.464L293.504 407.488c-15.552-19.2-10.368-43.328 10.368-52.928 20.8-14.464 46.784-9.6 57.152 9.6l213.12 274.304 202.56-279.104c10.432-19.2 36.416-24.064 57.152-9.6 20.8 9.6 25.984 33.664 10.432 52.928z" fill="#457AFF" p-id="40587"></path></svg>