<svg version="1.2" xmlns="http://www.w3.org/2000/svg" viewBox="0 0 1545 1542" width="1545" height="1542">
	<title>KC_BIG</title>
	<style>
		.s0 { fill: #e5002e } 
		.s1 { fill: #ffffff } 
	</style>
	<g id="Page 1">
		<path id="Path 5" fill-rule="evenodd" class="s0" d="m772.2 1541.5c-426.8 0-771.8-344.4-771.8-770.5 0-426.1 345-770.5 771.8-770.5 426.9 0 771.9 344.4 771.9 770.5 0 426.1-345 770.5-771.9 770.5z"/>
		<path id="Path 6" class="s1" d="m1083.9 577.4c-24.7-150.3-154.7-264.6-311.9-264.6-156.7 0-287.2 114.3-311.9 264.6-136.5 9.8-243.9 123.6-243.9 262.1 0 145.8 118.3 263.5 263.6 263.5 78.4 0 148.8-34.4 197.1-88.6l74.4 106.4c27.1 36.9 70.5 61.1 119.2 61.1q12.8 0 24.7-2c34.5-5.9 65-23.6 86.7-48.8-12.3 5.4-25.6 8.4-39.4 8.4-31.6 0-59.6-15.3-76.9-39.4l-184.7-264.1c10.3-6.9 22.6-11.3 36.4-11.3 19.7 0 37 8.9 48.8 23.2l116.8 166.5c41.8 53.7 107.9 88.6 181.3 88.6l10.3-0.4c140.9-5.5 253.8-121.2 253.8-263.1 0-138.5-107.9-252.3-244.4-262.1zm-19.7 419.7l-7.9-0.5c-38.9-2.4-72.9-22.6-94.1-51.7-0.5-1-50.3-71.9-78.4-111.8l-6.9-9.9c-23.1-29.5-58.6-48.8-99-48.8-19.7 0-37.9 4.5-54.7 12.4-19.2 9.3-35.9 23.6-48.3 41.3l-3.9-5.9c-10.3-13.8-24.6-24.6-41.4-31 4.9 15.3 7.9 31.5 7.9 48.3 0 24.1-5.4 46.8-15.3 67q-3.9 8.8-8.8 16.7c-28.1 44.4-77.4 73.9-133.6 73.9-87.2 0-157.6-70.4-157.6-157.6 0-80.3 60.6-146.8 138.9-156.2q8.9-1 18.7-1c39 0 74.9 14.3 102.5 38-13.3-27.6-20.7-58.7-20.7-91.2 0-13.3 1.5-26.1 3.5-38.4 18.2-97.6 103.9-171.5 206.9-171.5 103 0 188.7 73.9 206.9 171.5q3.5 18.7 4 38.4c0 32.5-7.4 63.6-20.7 91.2 27.6-23.7 63-38 102-38q9.8 0 19.2 1c78.3 9.4 138.4 75.9 138.4 156.2 0 87.2-70.4 157.6-157.6 157.6z"/>
	</g>
</svg>