<?xml version="1.0" encoding="UTF-8"?>
<svg width="12px" height="12px" viewBox="0 0 12 12" version="1.1" xmlns="http://www.w3.org/2000/svg" xmlns:xlink="http://www.w3.org/1999/xlink">
    <title>关联</title>
    <g id="最终" stroke="none" stroke-width="1" fill="none" fill-rule="evenodd">
        <g id="画板备份-34" transform="translate(-261, -340)" fill="#457AFF" fill-rule="nonzero">
            <g id="编组-19" transform="translate(261, 338)">
                <g id="关联" transform="translate(0, 2)">
                    <path d="M8.25,7.50675676 L8.25,5.95258205 C8.25,5.68846525 8.03631757,5.47478282 7.77220077,5.47478282 C7.50808398,5.47478282 7.29440154,5.68846525 7.29440154,5.95258205 L7.29440154,7.29440154 L0.955598456,7.29440154 L0.955598456,0.955598456 L7.29440154,0.955598456 L7.29440154,2.26689189 C7.29440154,2.53100869 7.50808398,2.74469112 7.77220077,2.74469112 C8.03631757,2.74469112 8.25,2.53100869 8.25,2.26689189 L8.25,0.743243243 C8.25,0.333132239 7.91686776,0 7.50675676,0 L0.743243243,0 C0.333132239,0 0,0.333132239 0,0.743243243 L0,7.50675676 C0,7.91686776 0.333132239,8.25 0.743243243,8.25 L7.50675676,8.25 C7.91686776,8.25 8.25,7.91686776 8.25,7.50675676 L8.25,7.50675676 Z" id="路径"></path>
                    <path d="M11.2567568,3.75 L4.49324324,3.75 C4.08313224,3.75 3.75,4.08318584 3.75,4.49336283 L3.75,6.05973451 C3.75,6.32389381 3.96368243,6.53761062 4.22779923,6.53761062 C4.49191602,6.53761062 4.70559846,6.32389381 4.70559846,6.05973451 L4.70559846,4.70575221 L11.0444015,4.70575221 L11.0444015,11.0455752 L4.70559846,11.0455752 L4.70559846,9.68097345 C4.70559846,9.41681416 4.49191602,9.20309735 4.22779923,9.20309735 C3.96368243,9.20309735 3.75,9.41681416 3.75,9.68097345 L3.75,11.2566372 C3.75,11.6668142 4.08313224,12 4.49324324,12 L11.2567568,12 C11.6668678,12 12,11.6668142 12,11.2566372 L12,4.49336283 C12,4.08318584 11.6668678,3.75 11.2567568,3.75 Z" id="路径"></path>
                </g>
            </g>
        </g>
    </g>
</svg>