<?xml version="1.0" encoding="UTF-8"?>
<svg width="24px" height="24px" viewBox="0 0 24 24" version="1.1" xmlns="http://www.w3.org/2000/svg" xmlns:xlink="http://www.w3.org/1999/xlink">
    <title>删除</title>
    <g id="最终" stroke="none" stroke-width="1" fill="none" fill-rule="evenodd">
        <g id="画板备份-11" transform="translate(-380, -316)" fill="#759DFE">
            <g id="编组-39" transform="translate(224, 174)">
                <g id="编组-19" transform="translate(16, 60)">
                    <g id="蒙版-2" transform="translate(16, 58)">
                        <g id="编组-10" transform="translate(115.5, 15)">
                            <path d="M22.8157895,9 C23.7459533,9 24.5,9.76751186 24.5,10.7142857 L24.499,11.999 L30.8585714,12 C31.9528571,12 32.5,12.580303 32.5,13.7409091 L32.5,15.2590909 C32.5,16.419697 31.9528571,17 30.8585714,17 L28.499,16.999 L28.5,31.2857143 C28.5,32.1826579 27.8232378,32.9187127 26.9611096,32.9937075 L26.8157895,33 L14.1842105,33 C13.2540467,33 12.5,32.2324881 12.5,31.2857143 L12.499,16.999 L10.1414286,17 C9.04714286,17 8.5,16.419697 8.5,15.2590909 L8.5,13.7409091 C8.5,12.580303 9.04714286,12 10.1414286,12 L16.499,11.999 L16.5,10.7142857 C16.5,9.76751186 17.2540467,9 18.1842105,9 L22.8157895,9 Z M17.0263158,19.0715703 C16.5612883,19.0715703 16.1842874,19.4552398 16.1842105,19.9285714 L16.1842105,27.6428571 C16.1842874,28.1161887 16.5612883,28.4998583 17.0263158,28.4998583 C17.4913433,28.4998583 17.8683442,28.1161887 17.8684211,27.6428571 L17.8684211,19.9285714 C17.8683442,19.4552398 17.4913433,19.0715703 17.0263158,19.0715703 Z M20.6052632,19.0715703 C20.1402356,19.0715703 19.7632348,19.4552398 19.7631579,19.9285714 L19.7631579,27.6428571 C19.7632348,28.1161887 20.1402356,28.4998583 20.6052632,28.4998583 C21.0702907,28.4998583 21.4472915,28.1161887 21.4473684,27.6428571 L21.4473684,19.9285714 C21.4472915,19.4552398 21.0702907,19.0715703 20.6052632,19.0715703 Z M23.9736842,19.0715703 C23.5086567,19.0715703 23.1316558,19.4552398 23.1315789,19.9285714 L23.1315789,27.6428571 C23.1316558,28.1161887 23.5086567,28.4998583 23.9736842,28.4998583 C24.4387117,28.4998583 24.8157126,28.1161887 24.8157895,27.6428571 L24.8157895,19.9285714 C24.8157126,19.4552398 24.4387117,19.0715703 23.9736842,19.0715703 Z M22.8157895,10.7142857 L18.1842105,10.7142857 L18.184,11.999 L22.815,11.999 L22.8157895,10.7142857 Z" id="删除"></path>
                        </g>
                    </g>
                </g>
            </g>
        </g>
    </g>
</svg>