<?xml version="1.0" encoding="UTF-8"?>
<svg width="24px" height="25px" viewBox="0 0 24 25" version="1.1" xmlns="http://www.w3.org/2000/svg" xmlns:xlink="http://www.w3.org/1999/xlink">
    <title>编辑</title>
    <g id="最终" stroke="none" stroke-width="1" fill="none" fill-rule="evenodd">
        <g id="画板备份-11" transform="translate(-444, -316)" fill="#759DFE">
            <g id="编组-39" transform="translate(224, 174)">
                <g id="编组-19" transform="translate(16, 60)">
                    <g id="蒙版-2" transform="translate(16, 58)">
                        <g id="编辑" transform="translate(177.5, 15)">
                            <path d="M26.1150603,13.6473444 C25.9315441,13.6473444 25.7772237,13.5848801 25.652099,13.4599515 C25.5269743,13.3350229 25.4227038,13.1892728 25.3392873,13.0227013 C25.2558709,12.8561298 25.1933086,12.6853941 25.1516003,12.510494 C25.1098921,12.3355939 25.089038,12.1898439 25.089038,12.0732439 L25.089038,9 L25.1390879,9 C25.2892375,9 25.4310454,9.01665715 25.5645117,9.04997144 C25.697978,9.08328573 25.8606401,9.16240719 26.052498,9.28733581 C26.2443558,9.41226442 26.4779219,9.58716448 26.7531961,9.81203598 C27.0284704,10.0369075 27.3746486,10.3325719 27.7917309,10.6990291 C28.2421797,11.0988007 28.6008704,11.4361079 28.8678031,11.7109509 C29.1347357,11.9857938 29.339106,12.2189939 29.480914,12.4105511 C29.6227219,12.6021083 29.7103092,12.7645155 29.7436758,12.8977727 C29.7770424,13.0310299 29.7937256,13.1476299 29.7937256,13.2475728 L29.7937256,13.6473444 L26.1150603,13.6473444 L26.1150603,13.6473444 Z M33.8978149,25.4156196 C33.9478647,25.5488768 33.9812313,25.7154483 33.9979146,25.9153341 C34.0145979,26.1152199 33.9311814,26.3067771 33.7476652,26.4900057 C33.6642488,26.5732914 33.589174,26.6524129 33.5224408,26.7273701 C33.4557077,26.8023272 33.3973161,26.8647916 33.3472663,26.914763 C33.2805331,26.9813916 33.2221416,27.031363 33.1720917,27.0646773 L31.0449723,24.9658767 C31.1450721,24.8825909 31.2576843,24.782648 31.3828089,24.666048 C31.5079336,24.549448 31.6122042,24.4578336 31.6956206,24.3912051 C31.8958201,24.2079764 32.1127028,24.128855 32.3462689,24.1538407 C32.5798349,24.1788264 32.7716928,24.2329621 32.9218424,24.3162479 C33.0886753,24.3995336 33.2680206,24.5452837 33.4598785,24.7534981 C33.6517363,24.9617124 33.7977151,25.1824196 33.8978148,25.4156197 L33.8978149,25.4156196 Z M25.9899356,27.4394631 L21.1350984,32.4865791 L14.2282165,32.4865791 C13.911234,32.4865791 13.5650558,32.3949647 13.1896818,32.2117361 C12.8143077,32.0285075 12.4639587,31.7869788 12.1386345,31.4871502 C11.8133104,31.1873215 11.5422069,30.8416857 11.3253241,30.4502427 C11.1084414,30.0587997 11,29.6548638 11,29.2384351 L11,12.2231582 C11,11.8733581 11.0792456,11.5069008 11.2377369,11.1237864 C11.3962281,10.740672 11.6131109,10.3950362 11.8883852,10.086879 C12.1636594,9.7787217 12.4764711,9.5205359 12.8268202,9.31232155 C13.1771693,9.1041072 13.5442016,9.00000002 13.9279173,9.00000002 L23.5124671,9.00000002 L23.5124671,12.1232153 C23.5124671,12.4397011 23.562517,12.7811727 23.6626167,13.1476299 C23.7627165,13.5140872 23.9170369,13.8513945 24.125578,14.1595517 C24.3341192,14.467709 24.6052226,14.7258948 24.9388884,14.9341091 C25.2725542,15.1423235 25.6729531,15.2464306 26.1400852,15.2464306 L29.7937257,15.2464306 L29.7937257,23.5167047 L26.3653097,27.0646773 C26.5488258,26.7981629 26.6405839,26.5066628 26.6405839,26.190177 C26.6405839,25.7570912 26.4862635,25.3864696 26.1776226,25.0783124 C25.8689818,24.7701551 25.4977786,24.6160765 25.0640131,24.6160765 L15.6796627,24.6160765 C15.2458972,24.6160765 14.8788648,24.7701551 14.5785656,25.0783124 C14.2782664,25.3864696 14.1281168,25.7570912 14.1281168,26.190177 C14.1281168,26.6232629 14.2782664,26.9897201 14.5785656,27.2895488 C14.8788648,27.5893775 15.2458972,27.7392918 15.6796627,27.7392918 L25.0640131,27.7392918 C25.4310454,27.7392918 25.7396863,27.6393489 25.9899356,27.4394631 Z M15.6796627,18.3696459 C15.2458972,18.3696459 14.8788648,18.5237246 14.5785656,18.8318818 C14.2782664,19.1400391 14.1281168,19.5106606 14.1281168,19.9437464 C14.1281168,20.3768323 14.2782664,20.7432896 14.5785656,21.0431182 C14.8788648,21.3429469 15.2458972,21.4928612 15.6796627,21.4928612 L25.0640131,21.4928612 C25.4977786,21.4928612 25.8689818,21.3429469 26.1776226,21.0431182 C26.4862635,20.7432896 26.6405839,20.3768323 26.6405839,19.9437464 C26.6405839,19.5106606 26.4862635,19.1400391 26.1776226,18.8318818 C25.8689818,18.5237246 25.4977786,18.3696459 25.0640131,18.3696459 L15.6796627,18.3696459 Z M25.114063,30.8874928 L25.4393871,30.5626784 L26.0650105,29.9380354 C26.3152598,29.6881782 26.5905341,29.4091709 26.8908333,29.1010137 C27.1911325,28.7928564 27.4914317,28.4888635 27.7917309,28.1890348 C28.5091124,27.4727774 29.3182519,26.6732343 30.2191495,25.7904055 L32.321244,27.8892062 L29.8938254,30.3128212 L28.9929278,31.2123072 L28.1671049,32.0368361 C27.9335389,32.2700361 27.7375102,32.4699219 27.579019,32.6364934 C27.4205277,32.8030649 27.3329404,32.8946792 27.3162572,32.9113364 C27.2328407,32.9779649 27.1410826,33.0487578 27.0409829,33.123715 C26.9408831,33.1986722 26.8407834,33.2611365 26.7406837,33.3111079 C26.6405839,33.3610794 26.4862635,33.4235437 26.2777224,33.4985009 C26.0691812,33.573458 25.8564693,33.6442509 25.6395866,33.7108795 C25.4227038,33.7775081 25.2141627,33.8358081 25.0139632,33.8857796 C24.8137637,33.935751 24.6636141,33.9690653 24.5635144,33.9857224 C24.3633149,34.0190367 24.2298486,33.994051 24.1631154,33.9107653 C24.0963823,33.8274796 24.079699,33.6858938 24.1130656,33.486008 C24.1297489,33.3860651 24.1631154,33.2361508 24.2131653,33.036265 C24.2632152,32.8363792 24.3216067,32.6323292 24.3883399,32.4241148 C24.455073,32.2159005 24.5176354,32.020179 24.5760269,31.8369503 C24.6344184,31.6537217 24.6802974,31.5287931 24.713664,31.4621645 C24.8137637,31.2456216 24.9472301,31.0540644 25.1140629,30.8874929 L25.114063,30.8874928 Z"></path>
                        </g>
                    </g>
                </g>
            </g>
        </g>
    </g>
</svg>