<?xml version="1.0" encoding="UTF-8"?>
<svg width="25px" height="24px" viewBox="0 0 25 24" version="1.1" xmlns="http://www.w3.org/2000/svg" xmlns:xlink="http://www.w3.org/1999/xlink">
    <title>立即检测</title>
    <g id="最终" stroke="none" stroke-width="1" fill="none" fill-rule="evenodd">
        <g id="画板备份-11" transform="translate(-504, -316)" fill="#759DFE">
            <g id="编组-39" transform="translate(224, 174)">
                <g id="编组-19" transform="translate(16, 60)">
                    <g id="蒙版-2" transform="translate(16, 58)">
                        <g id="立即检测" transform="translate(239.5, 15)">
                            <path d="M13.08,32.04 C13.08,32.568 13.488,33 13.98,33 L28.008,33 C28.5,33 28.908,32.568 28.908,32.04 C28.908,31.512 28.5,31.08 28.008,31.08 L13.98,31.08 C13.488,31.08 13.08,31.512 13.08,32.04 Z M29.4,9 L12.6,9 C10.608,9 9,10.608 9,12.6 L9,25.56 C9,27.552 10.608,29.16 12.6,29.16 L29.4,29.16 C31.392,29.16 33,27.552 33,25.56 L33,12.6 C33,10.608 31.392,9 29.4,9 Z M28.608,19.86 L26.112,19.86 C25.8,19.86 25.5,19.704 25.32,19.452 L24.564,18.36 L23.088,20.532 C22.908,20.808 22.584,20.964 22.26,20.952 C21.924,20.94 21.624,20.76 21.468,20.472 L20.016,17.94 L18.18,22.8 C18.048,23.148 17.724,23.4 17.34,23.424 L17.28,23.424 C16.932,23.424 16.596,23.232 16.428,22.92 L14.76,19.776 L13.392,19.776 C12.864,19.776 12.432,19.344 12.432,18.816 C12.432,18.288 12.864,17.856 13.392,17.856 L15.348,17.856 C15.708,17.856 16.032,18.048 16.2,18.36 L17.148,20.136 L18.948,15.348 C19.08,15 19.404,14.76 19.764,14.724 C20.136,14.688 20.484,14.88 20.676,15.204 L22.38,18.168 L23.76,16.116 C23.94,15.852 24.228,15.696 24.552,15.696 L24.564,15.696 C24.876,15.696 25.176,15.852 25.356,16.104 L26.628,17.94 L28.62,17.94 C29.148,17.94 29.58,18.372 29.58,18.9 C29.58,19.428 29.148,19.86 28.608,19.86 Z"></path>
                        </g>
                    </g>
                </g>
            </g>
        </g>
    </g>
</svg>