<?xml version="1.0" encoding="UTF-8"?>
<svg width="12px" height="12px" viewBox="0 0 12 12" version="1.1" xmlns="http://www.w3.org/2000/svg" xmlns:xlink="http://www.w3.org/1999/xlink">
    <title>扫描</title>
    <g id="修改" stroke="none" stroke-width="1" fill="none" fill-rule="evenodd">
        <g id="画板备份-23" transform="translate(-265, -148)" fill="#E22929" fill-rule="nonzero">
            <g id="编组-9" transform="translate(224, 60)">
                <g id="编组-11" transform="translate(26, 23)">
                    <g id="编组-40" transform="translate(14, 60)">
                        <path d="M7,5 C8.46999042,5 9.8174887,5.529 10.8609874,6.407 L9.43848918,7.829 C7.90623485,6.65138188 5.75117169,6.73761356 4.31790645,8.03389257 C2.88464122,9.33017158 2.5830736,11.465775 3.60136041,13.1082375 C4.61964723,14.7507 6.66656854,15.4302936 8.46499042,14.723 C8.92560544,15.0943844 9.58351246,15.0919448 10.0413605,14.7171545 C10.4992086,14.3423642 10.6315635,13.6979026 10.358488,13.173 C10.7784283,12.5261323 11.0014611,11.7712245 11.0004872,11 C11.0019478,10.1054277 10.7021795,9.23641546 10.1494883,8.533 L11.5704864,7.112 C12.4952945,8.19611676 13.0022738,9.57501718 13,11 C13,14.3135 10.3134881,17 7,17 C3.68649656,17 1,14.3135 1,11 C1,7.6865 3.68649656,5 7,5 Z M4.9495871,8.81104087 C5.98580372,7.84005017 7.56086895,7.72859877 8.7234901,8.544 L7.6294915,9.6385 C6.96630975,9.33205441 6.17880633,9.54795932 5.76463648,10.1497757 C5.35046663,10.7515921 5.43010359,11.5642643 5.95322156,12.0742319 C6.47633952,12.5841995 7.29077454,12.6431237 7.88185219,12.2137679 C8.47292985,11.7844122 8.66871816,10.9916669 8.34549058,10.3365 L9.43498919,9.247 C9.79048873,9.74 9.99999251,10.3455 9.99999251,11 C10.0008833,11.5431792 9.85359727,12.076314 9.57398901,12.542 C9.18518296,12.4376618 8.7699226,12.5269616 8.4583785,12.7819067 C8.1468344,13.0368518 7.97714077,13.426236 8.00249103,13.828 C6.66391627,14.3021135 5.17628878,13.7727581 4.43809146,12.559649 C3.69989414,11.3465398 3.91337049,9.78203156 4.9495871,8.81104087 Z M6.99999294,10.5 C7.27613433,10.5 7.49999294,10.7238576 7.49999294,11 C7.49999294,11.2761424 7.27613433,11.5 6.99999294,11.5 C6.72385028,11.5 6.49999294,11.2761424 6.49999294,11 C6.49999294,10.7238576 6.72385028,10.5 6.99999294,10.5 Z" id="扫描"></path>
                    </g>
                </g>
            </g>
        </g>
    </g>
</svg>