<?xml version="1.0" standalone="no"?><!DOCTYPE svg PUBLIC "-//W3C//DTD SVG 1.1//EN" "http://www.w3.org/Graphics/SVG/1.1/DTD/svg11.dtd"><svg t="1732785256557" class="icon" viewBox="0 0 1024 1024" version="1.1" xmlns="http://www.w3.org/2000/svg" p-id="8882" xmlns:xlink="http://www.w3.org/1999/xlink" width="200" height="200"><path d="M1005.056 514.121143c0 271.945143-220.525714 492.434286-492.507429 492.434286C240.64 1006.555429 20.114286 786.066286 20.114286 514.121143 20.114286 242.102857 240.603429 21.650286 512.548571 21.650286c271.981714 0 492.470857 220.489143 492.470858 492.470857z" fill="#FFD73A" p-id="8883"></path><path d="M288.365714 516.790857a35.84 35.84 0 0 1-35.766857-35.766857v-85.869714c0-19.675429 16.091429-35.766857 35.766857-35.766857 19.712 0 35.803429 16.091429 35.803429 35.766857v85.869714a35.84 35.84 0 0 1-35.803429 35.766857z m448.365715 0a35.876571 35.876571 0 0 1-35.766858-35.766857v-85.869714c0-19.675429 16.091429-35.766857 35.766858-35.766857s35.766857 16.091429 35.766857 35.766857v85.869714c0 19.675429-16.091429 35.766857-35.766857 35.766857zM511.780571 702.134857c-154.221714 0-196.717714-88.32-198.436571-92.050286a25.051429 25.051429 0 0 1 45.494857-20.992c1.097143 2.267429 32.731429 62.939429 152.941714 62.939429 120.539429 0 153.490286-61.549714 154.806858-64.146286a24.868571 24.868571 0 0 1 33.28-11.666285 25.197714 25.197714 0 0 1 11.776 33.572571c-1.828571 3.766857-45.897143 92.342857-199.862858 92.342857z" fill="#3E3417" p-id="8884"></path><path d="M259.730286 569.782857a71.68 71.68 0 1 1-143.36 0 71.68 71.68 0 0 1 143.36 0z m689.590857 0a71.68 71.68 0 1 1-143.323429 0 71.68 71.68 0 0 1 143.323429 0z" fill="#F44444" p-id="8885"></path></svg>