<?xml version="1.0" standalone="no"?><!DOCTYPE svg PUBLIC "-//W3C//DTD SVG 1.1//EN" "http://www.w3.org/Graphics/SVG/1.1/DTD/svg11.dtd"><svg t="1719395850375" class="icon" viewBox="0 0 1024 1024" version="1.1" xmlns="http://www.w3.org/2000/svg" p-id="3703" width="200" height="200" xmlns:xlink="http://www.w3.org/1999/xlink"><path d="M889.6 774.4c-12.8 12.8-44.8 44.8-108.8 44.8H435.2c108.8-102.4 192-192 204.8-198.4l44.8-44.8c38.4-44.8 70.4-44.8 102.4-44.8 44.8 0 76.8 12.8 102.4 44.8 57.6 51.2 57.6 147.2 0 198.4zM960 505.6c-44.8-44.8-102.4-76.8-166.4-76.8s-108.8 25.6-153.6 51.2c-12.8 12.8-44.8 32-64 64-25.6 12.8-371.2 364.8-371.2 364.8h512c32 0 64 0 83.2-6.4 51.2-6.4 108.8-25.6 153.6-64 89.6-89.6 89.6-243.2 6.4-332.8z" fill="#00A3FF" p-id="3704"></path><path d="M384 486.4c-51.2-38.4-89.6-51.2-147.2-51.2-64 0-128 25.6-166.4 76.8-89.6 96-89.6 243.2 6.4 339.2 38.4 38.4 83.2 57.6 128 57.6l96-89.6h-57.6c-51.2-6.4-83.2-25.6-108.8-44.8-57.6-57.6-57.6-147.2 0-204.8 32-32 57.6-44.8 102.4-44.8 25.6 0 57.6 6.4 96 44.8 12.8 19.2 57.6 44.8 70.4 64h6.4l57.6-64c-19.2-25.6-64-64-83.2-83.2" fill="#00C8DC" p-id="3705"></path><path d="M812.8 377.6C768 256 646.4 166.4 512 166.4c-160 0-288 115.2-313.6 268.8 6.4 0 25.6-6.4 38.4-6.4 12.8 0 38.4 6.4 51.2 6.4 25.6-102.4 115.2-172.8 217.6-172.8 89.6 0 172.8 51.2 204.8 134.4 0 0 6.4 6.4 6.4 0 32-6.4 64-19.2 96-19.2 0 6.4 0 6.4 0 0" fill="#006EFF" p-id="3706"></path></svg>