<?xml version="1.0" encoding="UTF-8"?>
<svg width="8px" height="8px" viewBox="0 0 8 8" version="1.1" xmlns="http://www.w3.org/2000/svg" xmlns:xlink="http://www.w3.org/1999/xlink">
    <title>待操作</title>
    <g id="最终" stroke="none" stroke-width="1" fill="none" fill-rule="evenodd">
        <g id="画板备份-2" transform="translate(-118, -15)" fill-rule="nonzero">
            <g id="待操作" transform="translate(118, 15)">
                <path d="M4,0 C6.2091,0 8,1.7909 8,4 C8,6.2091 6.2091,8 4,8 C1.7909,8 0,6.2091 0,4 C0,1.7909 1.7909,0 4,0 Z" id="形状" fill="#FFB310"></path>
                <path d="M2.73850391,2.98621285 C2.66630493,2.91282066 2.56028844,2.88379189 2.46077206,2.91016606 C2.36125569,2.93654022 2.28353128,3.01426463 2.25715711,3.113781 C2.23078295,3.21329738 2.25981172,3.31931387 2.33320391,3.39151285 L3.54236139,4.60067033 C3.7662024,4.82451134 4.12912038,4.82451134 4.35296139,4.60067033 L4.35296139,4.60067033 L4.35296139,4.60067033 L5.56774025,3.38589147 C5.64113244,3.31369249 5.67016121,3.207676 5.64378704,3.10815962 C5.61741288,3.00864325 5.53968847,2.93091884 5.4401721,2.90454468 C5.34065572,2.87817051 5.23463923,2.90719928 5.16244025,2.98059147 L3.94766139,4.19537033 L2.73850391,2.98621285 Z" id="路径" fill="#FFF1D4" transform="translate(3.9505, 3.9505) rotate(-315) translate(-3.9505, -3.9505)"></path>
            </g>
        </g>
    </g>
</svg>