<?xml version="1.0" standalone="no"?><!DOCTYPE svg PUBLIC "-//W3C//DTD SVG 1.1//EN" "http://www.w3.org/Graphics/SVG/1.1/DTD/svg11.dtd"><svg t="1741141156746" class="icon" viewBox="0 0 1024 1024" version="1.1" xmlns="http://www.w3.org/2000/svg" p-id="27312" xmlns:xlink="http://www.w3.org/1999/xlink" width="200" height="200"><path d="M425.459512 951.221073h-199.804878c-27.473171 0-52.44878-22.478049-52.44878-52.44878v-189.814634c-44.956098-7.492683-94.907317-24.97561-117.385366-62.439025-14.985366-24.97561-17.482927-52.44878-4.995122-79.921951 24.97561-52.44878 62.439024-92.409756 84.917073-114.887805 14.985366-77.42439 79.921951-384.62439 402.107317-384.62439 179.82439 0 324.682927 82.419512 389.619512 217.287805v2.497561c67.434146 144.858537 29.970732 322.185366-102.4 489.521951v124.878049c0 9.990244-9.990244 17.482927-19.980488 17.482926s-17.482927-9.990244-17.482926-19.980487v-129.873171c0-4.995122 2.497561-7.492683 4.995122-12.487805 127.37561-154.84878 164.839024-319.687805 102.4-452.058537v-2.49756c-57.443902-124.878049-189.814634-197.307317-357.15122-197.307318-74.926829 0-319.687805 24.97561-362.146341 362.146342 0 4.995122-2.497561 9.990244-7.492683 12.487805-17.482927 14.985366-57.443902 52.44878-82.419512 104.897561-7.492683 14.985366-7.492683 32.468293 2.49756 44.956097 14.985366 22.478049 52.44878 39.960976 107.395122 47.453659 9.990244 0 17.482927 9.990244 17.482927 17.482927v207.297561c0 7.492683 7.492683 14.985366 14.985366 14.985366h199.804878c9.990244 0 19.980488 7.492683 19.980488 19.980487s-12.487805 14.985366-22.478049 14.985366z" fill="#365FFF" p-id="27313"></path><path d="M343.04 731.435707l32.468293-87.414634h144.858536l32.468293 87.414634h39.960976l-124.878049-317.190244h-42.458537l-124.878049 317.190244h42.458537z m167.336585-119.882927h-122.380487l59.941463-157.346341h2.497561l59.941463 157.346341z m154.848781 119.882927v-317.190244h-34.965854v317.190244h34.965854z" fill="#365FFF" p-id="27314"></path></svg>