<?xml version="1.0" encoding="UTF-8"?>
<svg width="14px" height="14px" viewBox="0 0 14 14" version="1.1" xmlns="http://www.w3.org/2000/svg"
>
    <title>计算</title>
    <g id="页面-1" stroke="none" stroke-width="1" fill="none" fill-rule="evenodd">
        <g id="icon" transform="translate(-15, -13)" fill="#457AFF" fill-rule="nonzero">
            <path d="M28.231685,13.7505066 L15.7168511,13.7505066 C15.5511287,13.7505066 15.4170611,13.8845742 15.4170611,14.0502966 L15.4170611,17.0277135 C15.4170611,17.1934359 15.5511287,17.3275035 15.7168511,17.3275035 L28.231685,17.3275035 C28.3974074,17.3275035 28.531475,17.1934359 28.531475,17.0277135 L28.531475,14.0502966 C28.531475,13.8845742 28.3974074,13.7505066 28.231685,13.7505066 L28.231685,13.7505066 Z M22.3289885,15.8955875 C22.3289885,16.0613099 22.1949209,16.1953775 22.0291985,16.1953775 L21.3160336,16.1953775 C21.1503112,16.1953775 21.0162437,16.0613099 21.0162437,15.8955875 L21.0162437,15.1824226 C21.0162437,15.0167002 21.1503112,14.8826326 21.3160336,14.8826326 L22.0291985,14.8826326 C22.1949209,14.8826326 22.3289885,15.0167002 22.3289885,15.1824226 L22.3289885,15.8955875 Z M27.2205922,15.8955875 C27.2205922,16.0613099 27.0865247,16.1953775 26.9208023,16.1953775 L23.9415232,16.1953775 C23.7758008,16.1953775 23.6417333,16.0613099 23.6417333,15.8955875 L23.6417333,15.1824226 C23.6417333,15.0167002 23.7758008,14.8826326 23.9415232,14.8826326 L26.9208023,14.8826326 C27.0865247,14.8826326 27.2205922,15.0167002 27.2205922,15.1824226 L27.2205922,15.8955875 Z M28.231685,18.5117669 L15.7168511,18.5117669 C15.5511287,18.5117669 15.4170611,18.6458345 15.4170611,18.8115569 L15.4170611,21.7889738 C15.4170611,21.9546962 15.5511287,22.0887638 15.7168511,22.0887638 L28.231685,22.0887638 C28.3974074,22.0887638 28.531475,21.9546962 28.531475,21.7889738 L28.531475,18.8115569 C28.531475,18.6458345 28.3974074,18.5117669 28.231685,18.5117669 Z M22.3289885,20.6568478 C22.3289885,20.8225702 22.1949209,20.9566378 22.0291985,20.9566378 L21.3160336,20.9566378 C21.1503112,20.9566378 21.0162437,20.8225702 21.0162437,20.6568478 L21.0162437,19.9436829 C21.0162437,19.7779605 21.1503112,19.6438929 21.3160336,19.6438929 L22.0291985,19.6438929 C22.1949209,19.6438929 22.3289885,19.7779605 22.3289885,19.9436829 L22.3289885,20.6568478 Z M27.2205922,20.6568478 C27.2205922,20.8225702 27.0865247,20.9566378 26.9208023,20.9566378 L23.9415232,20.9566378 C23.7758008,20.9566378 23.6417333,20.8225702 23.6417333,20.6568478 L23.6417333,19.9436829 C23.6417333,19.7779605 23.7758008,19.6438929 23.9415232,19.6438929 L26.9208023,19.6438929 C27.0865247,19.6438929 27.2205922,19.7779605 27.2205922,19.9436829 L27.2205922,20.6568478 Z M28.231685,23.2935097 L15.7168511,23.2935097 C15.5511287,23.2935097 15.4170611,23.4275773 15.4170611,23.5932997 L15.4170611,26.5707167 C15.4170611,26.7364391 15.5511287,26.8705066 15.7168511,26.8705066 L28.231685,26.8705066 C28.3974074,26.8705066 28.531475,26.7364391 28.531475,26.5707167 L28.531475,23.5932997 C28.531475,23.4275773 28.3974074,23.2935097 28.231685,23.2935097 Z M22.3289885,25.4385906 C22.3289885,25.604313 22.1949209,25.7383806 22.0291985,25.7383806 L21.3160336,25.7383806 C21.1503112,25.7383806 21.0162437,25.604313 21.0162437,25.4385906 L21.0162437,24.7254257 C21.0162437,24.5597033 21.1503112,24.4256358 21.3160336,24.4256358 L22.0291985,24.4256358 C22.1949209,24.4256358 22.3289885,24.5597033 22.3289885,24.7254257 L22.3289885,25.4385906 Z M27.2205922,25.4385906 C27.2205922,25.604313 27.0865247,25.7383806 26.9208023,25.7383806 L23.9415232,25.7383806 C23.7758008,25.7383806 23.6417333,25.604313 23.6417333,25.4385906 L23.6417333,24.7254257 C23.6417333,24.5597033 23.7758008,24.4256358 23.9415232,24.4256358 L26.9208023,24.4256358 C27.0865247,24.4256358 27.2205922,24.5597033 27.2205922,24.7254257 L27.2205922,25.4385906 Z"
                  id="计算"></path>
        </g>
    </g>
</svg>