<?xml version="1.0" standalone="no"?><!DOCTYPE svg PUBLIC "-//W3C//DTD SVG 1.1//EN" "http://www.w3.org/Graphics/SVG/1.1/DTD/svg11.dtd"><svg t="1741140932688" class="icon" viewBox="0 0 1024 1024" version="1.1" xmlns="http://www.w3.org/2000/svg" p-id="19226" xmlns:xlink="http://www.w3.org/1999/xlink" width="200" height="200"><path d="M512 672.17784601A160.46390401 160.46390401 0 0 0 672.28323599 511.89460999 160.494016 160.494016 0 0 0 512 351.61137401 160.43379299 160.43379299 0 0 0 351.71676401 511.89460999 160.494016 160.494016 0 0 0 512 672.17784601z m0-277.838328A117.64542599 117.64542599 0 0 1 629.494869 511.89460999 117.61531402 117.61531402 0 0 1 512 629.38947902 117.64542599 117.64542599 0 0 1 394.47502 511.89460999 117.67553702 117.67553702 0 0 1 512 394.33951799z" fill="#365FFF" p-id="19227"></path><path d="M0.10538997 567.32978498c0.66245195 30.35233901 21.409239 75.39906501 75.91096001 75.39906501h55.19428302c5.51039502 16.35051601 11.984356 32.09880301 19.30143795 47.15452702l-38.84376695 38.87387899c-38.54265299 38.452319-21.31890501 85.034728 0 107.31719899l77.356309 77.29608601c2.439027 2.348693 24.66127599 22.76425401 55.13406 22.764255 18.87987801 0 36.856412-7.97953403 51.85191301-23.095481l38.72332197-38.72332099c15.17617001 7.467639 31.04490302 14.001823 47.30508403 19.48210599v54.11027201c0 59.982004 49.56344301 75.820625 75.91095899 75.820625h109.12388702c30.41256199 0 75.730291-20.14455798 75.73029098-75.820625v-54.11027201c16.410739-5.63084102 32.219249-12.074691 47.365307-19.48210599 19.482107 19.54233003 33.092481 33.12259201 38.090981 38.09098103 19.482107 19.602552 39.295439 23.72782099 52.51436499 23.72782096 30.95456801 0 52.66492199-21.46946199 54.80283401-23.66759798l77.05519502-77.08530602c21.589908-21.55979701 39.295439-67.90131401 0-107.28708801l-38.27165002-38.27165c7.37730499-15.20628101 13.85126601-30.95456801 19.33154899-47.15452699h54.411386c27.91331201 0 44.80583395-11.321904 54.110272-20.71667601 21.589908-21.92113398 21.800688-52.062693 21.710353-55.103949v-108.97332899c0-30.533008-20.14455798-75.97118198-75.820625-75.97118301h-54.622166a385.817979 385.817979 0 0 0-19.36166099-46.853412c19.75310999-19.72299799 33.45381799-33.45381799 38.51254202-38.54265299 19.72299799-19.69288701 23.81815501-39.686888 23.66759798-52.996148-0.21078-30.743788-21.46946199-52.21325002-23.66759798-54.32105102l-77.05519502-77.14552899c-2.439027-2.408916-24.360161-23.36648304-55.13406-23.36648398-18.78954301 0-36.796189 8.099979-52.06269301 23.30626098l-38.87387899 38.813656a390.696033 390.696033 0 0 0-46.73296701-19.180992V75.880848c0-54.41138601-45.01661399-75.15817299-75.79051399-75.850737H457.49827997c-30.35233901 0.66245195-75.489399 21.37912796-75.48939897 75.850737v55.79651296c-16.04940201 5.45017202-31.64713101 11.89402199-46.70285601 19.18099204L295.980475 111.56291399c-15.055724-15.055724-33.002147-23.035257-51.85191299-23.03525796-30.472785 0-52.695033 20.32522699-55.46528701 23.03525796l-77.32619697 77.38642003c-20.957568 21.89102199-38.211427 68.41320899 0.36133695 107.01608498l39.08465903 39.14488203a408.642456 408.642456 0 0 0-19.33154901 46.82330098H76.01634998c-54.471609 0-75.248508 45.16717098-75.91095991 75.97118198v109.42500099z m75.91096001-142.63792699h86.96186001l4.54682899-15.23639299c7.19663598-24.05904699 16.651631-47.00397002 28.15420402-68.17231698l7.618196-14.03193499-61.42735299-61.51768803c-20.83712201-20.867233-4.938277-41.52368599 0-46.88352399L218.413385 142.27658998c3.312259-3.071368 14.423383-10.99067803 25.71517701-10.99067797 7.49775001 0 14.573941 3.46281601 21.650131 10.47878396l61.57791 61.547798 13.97171194-7.52786097c21.37912796-11.53268399 44.293939-20.92745601 68.14220605-28.033758l15.26650399-4.51671702V75.880848c0-29.479107 25.89584499-32.76125499 33.21292601-33.09248101h108.401212c7.94942201 0.30111401 33.66459799 3.64348498 33.66459797 33.09248101v87.383421l15.32672703 4.51671699c24.11927001 7.13641299 47.03408099 16.561296 68.17231801 28.00364701l14.03193399 7.55797301 61.06601601-60.97568201c7.28697001-7.31708201 14.423383-10.87023301 21.95124597-10.870232 11.141236 0 21.89102199 7.94942201 24.87205503 10.840121l77.26597499 77.326198c0.12044599 0.12044599 10.77989801 11.29179301 10.90034403 24.20960301 0.060223 7.557973-3.61337398 14.844944-11.26168103 22.49325201-5.99217799 6.082512-23.90848898 23.96871197-49.533332 49.56344299l-11.29179302 11.291793 7.70853101 14.06204601c11.592907 21.28879296 20.987679 44.20360502 28.09398102 68.08198301l4.546828 15.29661498h86.14885201c29.298439 0 32.911812 23.36648304 33.09248096 33.24303801v109.12388698c0 9.93677801-3.312259 33.002147-33.09248096 33.00214601h-85.99829501l-4.486605 15.35683798a352.57493999 352.57493999 0 0 1-28.12409202 68.47343201l-7.588085 13.971712 60.58423201 60.58423302c20.71667599 20.746787 6.835299 39.74711101 0 46.91363498l-77.265974 77.29608602c-0.12044599 0.12044599-11.35201604 10.84012101-24.36016099 10.84012095-7.52786195 0-14.75460899-3.58326199-22.28247199-11.23156994-6.11262401-5.962067-23.757932-23.66759802-49.05154801-49.02143603l-11.29179301-11.29179299-14.09215699 7.58808499c-21.198459 11.53268399-44.35416199 21.01779002-68.77454702 28.27464899l-15.26650402 4.456494v85.757403c0 29.23821598-23.15570301 32.88170098-33.15270295 33.12259301h-109.09377502c-9.93677801-0.060223-33.03225801-3.282148-33.03225799-33.12259301v-85.757403l-15.326727-4.51671698a352.002823 352.002823 0 0 1-68.62398902-28.244538l-14.03193498-7.678419-61.066016 61.09612699c-7.01596701 7.046079-14.092157 10.50889501-21.58990799 10.508896-11.29179301 0-22.402917-7.97953403-25.23339302-10.56911899l-76.57341101-76.51318801c-5.389949-5.841621-21.31890501-26.588408-0.42155998-47.36530697l61.09612699-61.18646202-7.55797401-13.97171098a356.971212 356.971212 0 0 1-28.18431501-68.53365502l-4.42638199-15.26650402H76.01634998c-29.53932999 0-32.851589-25.83562199-33.18281597-33.152704v-108.340989c0.36133702-7.94942201 3.67359697-33.81515601 33.18281597-33.81515497z" fill="#365FFF" p-id="19228"></path></svg>