<?xml version="1.0" encoding="UTF-8"?>
<svg width="17px" height="16px" viewBox="0 0 17 16" version="1.1" xmlns="http://www.w3.org/2000/svg"
>
    <title>容器</title>
    <g id="页面-1" stroke="none" stroke-width="1" fill="none" fill-rule="evenodd">
        <g id="icon" transform="translate(-94, -43)" fill="#457AFF" fill-rule="nonzero">
            <path d="M98.7919987,50.4213832 L101.86129,52.151359 C102.029605,52.2461882 102.133732,52.42438 102.133732,52.61757 L102.133732,56.0527541 C102.133436,56.2456462 102.029346,56.4234498 101.86129,56.5181326 L98.7922068,58.2495653 C98.6290957,58.3415108 98.4297898,58.3415108 98.2666788,58.2495653 L95.1971789,56.5181326 C95.0292038,56.4233961 94.9251994,56.2456027 94.924945,56.0527541 L94.924945,52.6167375 C94.924945,52.4235475 95.0290724,52.2453556 95.197387,52.1505265 L98.2666788,50.4213832 C98.4297362,50.329516 98.6289413,50.329516 98.7919987,50.4213832 Z M107.380271,50.4213832 L110.449563,52.151359 C110.617618,52.2460418 110.721708,52.4238454 110.722005,52.6167375 L110.722005,56.0527541 C110.721751,56.2456027 110.617746,56.4233961 110.449771,56.5181326 L107.380479,58.2495653 C107.217368,58.3415108 107.018062,58.3415108 106.854951,58.2495653 L103.78566,56.5181326 C103.61749,56.4232863 103.513426,56.2452018 103.513426,56.0521297 L103.513426,52.6167375 C103.513426,52.4235475 103.617553,52.2453556 103.785868,52.1505265 L106.854951,50.4213832 C107.018009,50.329516 107.217214,50.329516 107.380271,50.4213832 Z M107.294105,51.327789 C107.230641,51.2912961 107.152561,51.2912961 107.089097,51.327789 L104.809034,52.6390074 C104.745432,52.6755884 104.706139,52.7432869 104.705924,52.8166585 C104.70571,52.89003 104.744606,52.9579572 104.807994,52.9949095 L106.769826,54.139624 C106.827518,54.1729873 106.8978,54.176323 106.958392,54.1485736 L109.51839,52.9830461 C109.588574,52.951115 109.634996,52.8826038 109.638637,52.8055835 C109.642277,52.7285631 109.602524,52.6559787 109.535665,52.61757 Z M98.5611826,51.3290377 C98.4977186,51.2925449 98.4196386,51.2925449 98.3561746,51.3290377 L96.0965082,52.6283928 C96.0311646,52.6659966 95.991638,52.7363435 95.9935048,52.8117117 C95.9953717,52.8870799 96.0383325,52.9553836 96.1054578,52.9897063 L98.3651242,54.1454517 C98.4238817,54.1754707 98.4934755,54.1754707 98.552233,54.1454517 L100.811899,52.9897063 C100.879025,52.9553836 100.921986,52.8870799 100.923852,52.8117117 C100.925719,52.7363435 100.886193,52.6659967 100.820849,52.6283928 Z M103.086135,43.3874248 L106.155427,45.1165681 C106.323741,45.2113973 106.427869,45.3895891 106.427869,45.5827791 L106.427869,49.0185876 C106.427869,49.2117776 106.323741,49.3899695 106.155427,49.4847986 L103.086135,51.21415 C102.923078,51.3060173 102.723872,51.3060173 102.560815,51.21415 L99.4915233,49.4847986 C99.3232087,49.3899695 99.2190812,49.2117776 99.2190812,49.0185876 L99.2190812,45.5827791 C99.2190812,45.3895891 99.3232087,45.2113973 99.4915233,45.1165681 L102.560815,43.3874248 C102.723872,43.2955576 102.923078,43.2955576 103.086135,43.3874248 Z M102.928164,44.2578241 C102.8647,44.2213313 102.78662,44.2213313 102.723156,44.2578241 L100.463074,45.5571791 C100.39773,45.594783 100.358203,45.6651299 100.36007,45.7404981 C100.361937,45.8158663 100.404898,45.88417 100.472023,45.9184926 L102.731482,47.074238 C102.790295,47.104328 102.859985,47.104328 102.918798,47.074238 L105.178881,45.9184926 C105.246006,45.88417 105.288967,45.8158663 105.290834,45.7404981 C105.292701,45.6651299 105.253174,45.594783 105.187831,45.5571791 Z"
                  id="容器"></path>
        </g>
    </g>
</svg>