<?xml version="1.0" encoding="UTF-8"?>
<svg width="13px" height="15px" viewBox="0 0 13 15" version="1.1" xmlns="http://www.w3.org/2000/svg"
>
    <title>数据库</title>
    <g id="页面-1" stroke="none" stroke-width="1" fill="none" fill-rule="evenodd">
        <g id="icon" transform="translate(-15, -142)" fill="#457AFF" fill-rule="nonzero">
            <path d="M27.344186,151.118022 L27.344186,153.825415 C27.1987761,154.973114 24.7060362,156.22987 21.3564168,156.22987 C18.0067975,156.22987 15.4950157,154.9835 15.377303,153.844457 L15.377303,151.235735 C17.1135656,152.442291 19.2046975,153.032585 21.3166022,152.909679 C22.9524628,152.925259 24.5710127,152.592894 26.0683878,151.935087 C26.5305833,151.727359 26.9616196,151.452119 27.344186,151.118022 Z M27.344186,146.579158 L27.344186,149.288282 C27.1987761,150.437712 24.7060362,151.692738 21.3564168,151.692738 C18.0067975,151.692738 15.4950157,150.446368 15.377303,149.307324 L15.377303,146.696871 C17.1135656,147.905158 19.2046975,148.493721 21.3166022,148.370815 C22.9524628,148.386395 24.5710127,148.055761 26.0683878,147.396223 C26.5305833,147.186764 26.9616196,146.911524 27.344186,146.579158 Z M25.6892836,143.220884 C26.6829175,143.658844 27.2766743,144.282029 27.2766743,144.837703 C27.2766743,145.382989 26.6638757,145.987133 25.6892836,146.454521 C24.3044281,147.043085 22.8122462,147.332174 21.3079469,147.301014 C17.8994712,147.301014 15.3582612,146.006174 15.3582612,144.848089 C15.3582612,143.690004 17.9098576,142.384777 21.3269886,142.384777 C22.8243637,142.351887 24.3096213,142.637513 25.6892836,143.220884 Z"
                  id="数据库"></path>
        </g>
    </g>
</svg>