<?xml version="1.0" encoding="UTF-8"?>
<svg width="17px" height="13px" viewBox="0 0 17 13" version="1.1" xmlns="http://www.w3.org/2000/svg"
>
    <title>身份</title>
    <g id="页面-1" stroke="none" stroke-width="1" fill="none" fill-rule="evenodd">
        <g id="icon" transform="translate(-13, -109)" fill="#457AFF" fill-rule="nonzero">
            <g id="身份" transform="translate(13.5682, 109.3214)">
                <path d="M7.7830485,0 C8.74562957,0 10.1024687,0.0394258067 11.0626842,0.115123355 L12.0372902,0.193974969 C13.8464419,0.338923496 15.282961,1.77544261 15.4279095,3.58459434 L15.5067612,4.55920028 C15.5834443,5.51941581 15.5883726,7.42742772 15.5067612,7.96440721 L15.4279095,8.93881602 C15.282961,10.7479678 13.8464419,12.1844869 12.0372902,12.3294354 L11.0626842,12.408287 C10.1054256,12.4847731 8.75154344,12.5230161 7.79172217,12.5232132 C6.82578991,12.5232132 5.46658522,12.4851673 4.50341277,12.408287 L3.52900396,12.3294354 C1.71985222,12.1844869 0.283333109,10.7479678 0.138384581,8.93881602 L0.053224839,7.87293934 C-0.017741613,6.98585869 -0.017741613,5.53676316 0.053224839,4.65066816 L0.138384581,3.58459434 C0.283333109,1.77544261 1.71985222,0.338923496 3.52900396,0.193974969 L4.50341277,0.115123355 C5.46382542,0.0384401615 6.82046743,0 7.7830485,0 Z M10.6539567,2.72964573 C9.66496926,2.72964573 8.86323654,3.62978575 8.86323654,4.74016474 C8.86323654,5.39329923 9.14062755,5.97369327 9.5691334,6.34005431 C9.21724076,6.43528585 9.03907564,6.5466552 9.03907564,6.5466552 C8.21744183,6.94091327 7.66804321,7.61884001 7.66804321,8.39966811 C7.66804321,9.57486043 8.90392707,9.77880587 10.4651114,9.79275553 L10.6539567,9.79356751 C12.3031382,9.79356751 13.6398702,9.62285376 13.6398702,8.39966811 C13.6398702,7.61982566 13.0904715,6.94091327 12.2688377,6.5466552 C12.2688377,6.5466552 12.0742501,6.44096238 11.7285909,6.34855667 C12.1634228,5.98174458 12.4446768,5.39783139 12.4446768,4.74016474 C12.4446768,3.62978575 11.6429441,2.72964573 10.6539567,2.72964573 Z M5.42156075,6.76172297 L2.51765296,6.76172297 C2.19103888,6.76172297 1.92626586,7.026496 1.92626586,7.35311007 C1.92626586,7.67972415 2.19103888,7.94449717 2.51765296,7.94449717 L5.42156075,7.94449717 C5.74817483,7.94449717 6.01294785,7.67972415 6.01294785,7.35311007 C6.01294785,7.026496 5.74817483,6.76172297 5.42156075,6.76172297 Z M6.2889285,3.90335199 L2.51765296,3.90335199 C2.19103888,3.90335199 1.92626586,4.16812501 1.92626586,4.49473909 C1.92626586,4.82135317 2.19103888,5.08612619 2.51765296,5.08612619 L6.2889285,5.08612619 C6.61554257,5.08612619 6.8803156,4.82135317 6.8803156,4.49473909 C6.8803156,4.16812501 6.61554257,3.90335199 6.2889285,3.90335199 Z"
                      id="形状结合"></path>
            </g>
        </g>
    </g>
</svg>