<?xml version="1.0" standalone="no"?><!DOCTYPE svg PUBLIC "-//W3C//DTD SVG 1.1//EN" "http://www.w3.org/Graphics/SVG/1.1/DTD/svg11.dtd"><svg t="1741140575687" class="icon" viewBox="0 0 1024 1024" version="1.1" xmlns="http://www.w3.org/2000/svg" p-id="9934" xmlns:xlink="http://www.w3.org/1999/xlink" width="200" height="200"><path d="M389.485714 497.737143h-128.914285c-17.371429 0-31.451429 14.262857-31.451429 31.634286s14.262857 31.634286 31.451429 31.634285h129.28c17.371429 0 31.634286-14.262857 31.634285-31.634285s-14.628571-31.634286-32-31.634286z m0 172.8h-128.914285c-17.371429 0-31.451429 14.262857-31.451429 31.634286s14.262857 31.634286 31.451429 31.634285h129.28c17.371429 0 31.634286-14.262857 31.634285-31.634285s-14.628571-31.634286-32-31.634286z" p-id="9935" fill="#365FFF"></path><path d="M482.742857 868.022857H166.4V164.388571h602.331429v224.365715c0 17.554286 14.445714 32 32 32s32-14.445714 32-32V164.388571c0-35.291429-28.891429-64-64-64H166.4c-35.291429 0-64 28.891429-64 64v703.634286c0 35.291429 28.891429 64 64 64h316.342857c17.554286 0 32-14.445714 32-32s-14.262857-32-32-32z" p-id="9936" fill="#365FFF"></path><path d="M574.72 384.548571H259.108571c-17.371429 0-31.451429-14.262857-31.451428-31.451428 0-17.371429 14.262857-31.451429 31.451428-31.451429h315.611429c17.371429 0 31.451429 14.262857 31.451429 31.451429 0 17.188571-14.08 31.451429-31.451429 31.451428zM699.977143 476.891429c-110.628571 0-200.228571 89.6-200.228572 200.228571s89.6 200.228571 200.228572 200.228571 200.228571-89.6 200.228571-200.228571-89.782857-200.228571-200.228571-200.228571z m0 339.2c-76.8 0-138.971429-62.171429-138.971429-138.971429s62.171429-138.971429 138.971429-138.971429 138.971429 62.171429 138.971428 138.971429-62.354286 138.971429-138.971428 138.971429z" p-id="9937" fill="#365FFF"></path><path d="M855.222857 900.571429l-61.074286-66.194286c-10.788571-11.52-10.057143-29.805714 1.645715-40.594286l4.205714-3.84c11.52-10.788571 29.805714-10.057143 40.594286 1.645714l61.074285 66.194286c10.788571 11.52 10.057143 29.805714-1.645714 40.594286l-4.205714 3.84c-11.702857 10.788571-29.988571 10.057143-40.594286-1.645714z" p-id="9938" fill="#365FFF"></path></svg>