<?xml version="1.0" encoding="UTF-8"?>
<svg width="15px" height="15px" viewBox="0 0 15 15" version="1.1" xmlns="http://www.w3.org/2000/svg"
>
    <title>网络</title>
    <g id="页面-1" stroke="none" stroke-width="1" fill="none" fill-rule="evenodd">
        <g id="icon" transform="translate(-15, -44)" fill="#457AFF" fill-rule="nonzero">
            <path d="M18.7999687,51.36525 L21.6279375,51.36525 L21.6279375,48.776625 L19.12425,48.776625 C18.9259831,49.6257953 18.8172952,50.493413 18.7999687,51.36525 L18.7999687,51.36525 Z M19.1391562,54.5923125 L21.6276562,54.5923125 L21.6276562,51.93675 L18.7999687,51.93675 C18.8174144,52.8315441 18.931132,53.7218605 19.1391562,54.5923125 L19.1391562,54.5923125 Z M19.2741562,48.2054062 L21.6276562,48.2054062 L21.6276562,44.7553125 C21.4221066,44.76703 21.2171633,44.7876745 21.0134062,44.8171875 C20.2607812,45.7191562 19.65975,46.87875 19.2741562,48.2054062 L19.2741562,48.2054062 Z M18.5513438,48.776625 L15.6674063,48.776625 C15.283627,49.5891722 15.0600799,50.4680821 15.009,51.36525 L18.2270625,51.36525 C18.24675,50.4615938 18.35925,49.5925313 18.5513438,48.776625 L18.5513438,48.776625 Z M24.8102812,48.776625 L22.140375,48.776625 L22.140375,51.36525 L25.1131875,51.36525 C25.1024985,50.4941902 25.0009805,49.626621 24.8102812,48.776625 L24.8102812,48.776625 Z M28.0913437,48.2054063 C27.1305937,46.5792188 25.5345,45.3743438 23.6439375,44.9308125 C24.3338437,45.8232188 24.8836875,46.9409063 25.2380625,48.2054063 L28.0913437,48.2054063 Z M22.974,44.8079063 C22.6976061,44.7706492 22.4192379,44.7498937 22.140375,44.74575 L22.140375,48.2054063 L24.667125,48.2054063 C24.2961562,46.8815625 23.7100312,45.7191563 22.974,44.8079063 L22.974,44.8079063 Z M18.2270625,51.93675 L15,51.93675 C15.0210938,52.8795 15.2269687,53.776125 15.583875,54.5923125 L18.5676562,54.5923125 C18.359154,53.7219129 18.2449648,52.8315953 18.2270625,51.93675 L18.2270625,51.93675 Z M15.8645625,55.1638125 C16.8396562,56.9345625 18.555,58.2404063 20.5940625,58.6636875 C19.7829375,57.7532813 19.1338125,56.5506563 18.7215,55.1638125 L15.8645625,55.1638125 L15.8645625,55.1638125 Z M20.3299688,44.9513438 C18.4779375,45.4111875 16.9167188,46.6045313 15.9705938,48.2054063 L18.70125,48.2054063 C19.0674375,46.9442813 19.6288125,45.8330625 20.3299688,44.9513438 Z M23.1762187,58.7168438 C25.3429687,58.3619063 27.1767187,57.018375 28.1979375,55.1638125 L25.159875,55.1638125 C24.7219687,56.5875 24.0334687,57.8115 23.1762187,58.7168438 L23.1762187,58.7168438 Z M25.6860937,51.36525 L29.0532187,51.36525 C29.0020947,50.4681213 28.7786496,49.5892372 28.3950937,48.776625 L25.3834687,48.776625 C25.5739504,49.6266519 25.6753726,50.4942081 25.6860937,51.36525 L25.6860937,51.36525 Z M22.140375,55.1638125 L22.140375,58.80825 C22.2708166,58.8061776 22.4011775,58.8005505 22.5313125,58.791375 C23.4223125,57.8792813 24.1366875,56.626875 24.5866875,55.1638125 L22.140375,55.1638125 Z M21.262875,58.7683125 C21.3842796,58.7815897 21.506008,58.7917181 21.6279375,58.7986875 L21.6279375,55.1638125 L19.2946875,55.1638125 C19.7230312,56.6049375 20.4064687,57.8466563 21.262875,58.7683125 L21.262875,58.7683125 Z M25.1098125,51.93675 L22.140375,51.93675 L22.140375,54.5923125 L24.7467187,54.5923125 C24.9633205,53.7228397 25.0850625,52.8324546 25.1098125,51.93675 L25.1098125,51.93675 Z M26.9483438,51.93675 L25.681875,51.93675 C25.6571683,52.8324225 25.5356171,53.7227922 25.3193438,54.5923125 L28.478625,54.5923125 C28.8355313,53.776125 29.041125,52.8795 29.0625,51.93675 L26.9483438,51.93675 Z"
                  id="网络"></path>
        </g>
    </g>
</svg>