<?xml version="1.0" encoding="UTF-8"?>
<svg width="14px" height="16px" viewBox="0 0 14 16" version="1.1" xmlns="http://www.w3.org/2000/svg"
>
    <title>大数据</title>
    <g id="修改" stroke="none" stroke-width="1" fill="none" fill-rule="evenodd">
        <g id="icon" transform="translate(-96, -141)" fill="#457AFF" fill-rule="nonzero">
            <path d="M108.247243,153.367086 L103.957066,155.79299 C103.242268,156.146151 102.403743,156.146151 101.688945,155.79299 L97.3828017,153.367086 C96.7175903,152.943798 96.2959462,152.226968 96.2492107,151.439888 L96.2492107,146.58902 C96.2959462,145.80194 96.7175903,145.08511 97.3828017,144.661821 L101.688945,142.236857 C102.403743,141.883695 103.242268,141.883695 103.957066,142.236857 L108.247243,144.661821 C108.921678,145.078554 109.350936,145.797604 109.397739,146.58902 L109.397739,151.439888 C109.350936,152.231303 108.921678,152.950353 108.247243,153.367086 Z M107.519378,148.546272 L105.888021,148.546272 L105.879569,148.538759 L105.872055,148.546272 L104.214401,150.203926 L101.611932,146.662276 L101.183666,146.662276 L99.297791,148.546272 L98.127572,148.546272 L98.127572,149.485453 L99.7589287,149.485453 L99.7673813,149.492966 L99.7748947,149.485453 L101.432549,147.827799 L104.035018,151.369449 L104.463284,151.369449 L106.349159,149.485453 L107.519378,149.485453 L107.519378,148.546272 Z"
                  id="大数据"></path>
        </g>
    </g>
</svg>