<?xml version="1.0" encoding="UTF-8"?>
<svg width="14px" height="17px" viewBox="0 0 14 17" version="1.1" xmlns="http://www.w3.org/2000/svg"
>
    <title>安全</title>
    <g id="页面-1" stroke="none" stroke-width="1" fill="none" fill-rule="evenodd">
        <g id="icon" transform="translate(-14, -75)" fill="#457AFF" fill-rule="nonzero">
            <path d="M21.3830486,75.7198988 L27.7507086,77.9877388 L27.7507086,85.1818988 C27.7507086,87.5643088 25.6679286,89.6404388 21.5616486,91.3534788 L21.3389686,91.4461988 L21.1214186,91.3451188 C16.9691586,89.4204188 14.9517386,87.4045188 14.9517386,85.1818988 L14.9517386,77.9322588 L21.3830486,75.7198988 Z M25.3776214,80.2929771 C25.1140816,80.0294936 24.6868589,80.0294936 24.4233191,80.2929771 L20.5546515,84.1614338 C20.4228937,84.2931053 20.2093636,84.2931053 20.0776058,84.1614338 L18.5709681,82.655007 C18.3074283,82.3915235 17.8802056,82.3915235 17.6166659,82.655007 C17.3531824,82.9185468 17.3531824,83.3457695 17.6166659,83.6093093 L19.8388721,85.8317264 C19.9654383,85.9583216 20.1371164,86.0294445 20.3161286,86.0294445 C20.4951408,86.0294445 20.6668189,85.9583216 20.7933852,85.8317264 L25.3776214,81.2472793 C25.6411049,80.9837396 25.6411049,80.5565169 25.3776214,80.2929771 Z"
                  id="安全"></path>
        </g>
    </g>
</svg>