<?xml version="1.0" encoding="UTF-8"?>
<svg width="14px" height="14px" viewBox="0 0 14 14" version="1.1" xmlns="http://www.w3.org/2000/svg"
>
    <title>存储</title>
    <g id="页面-1" stroke="none" stroke-width="1" fill="none" fill-rule="evenodd">
        <g id="icon" transform="translate(-96, -75)" fill="#457AFF" fill-rule="nonzero">
            <path d="M99.281604,82.5044207 L106.353335,82.5044207 L106.353335,88.3966195 L99.281604,88.3966195 L99.281604,82.5044207 Z M106.581869,75.3125506 L106.278795,75.3125506 L106.278795,78.7785196 C106.275509,79.3334115 105.826173,79.7822604 105.271278,79.7849443 L100.375674,79.7849443 C99.8204619,79.7822563 99.3709961,79.3329123 99.3681576,78.7777005 L99.3681576,75.3125506 L96.9746908,75.3125506 C96.7877525,75.3121159 96.608349,75.3862023 96.476189,75.5184135 C96.3440289,75.6506248 96.2700121,75.8300571 96.2705186,76.0169951 L96.2705186,87.7030984 C96.2700121,87.8900365 96.3440289,88.0694687 96.476189,88.20168 C96.608349,88.3338913 96.7877525,88.4079777 96.9746908,88.407543 L98.1984552,88.407543 L98.1984552,82.4279695 C98.2011431,81.872757 98.6504871,81.4232912 99.205699,81.4204527 L106.430332,81.4204527 C106.985968,81.4231455 107.435608,81.8731503 107.437849,82.4287887 L107.437849,88.3966195 L108.672535,88.3966195 C108.859331,88.3969828 109.038581,88.3229392 109.170666,88.1908541 C109.302751,88.0587691 109.376795,87.879519 109.376433,87.6927229 L109.376433,78.0961932 L106.581869,75.3125506 Z M100.451307,75.3125525 L103.506076,75.3125525 L103.506076,78.7026146 L100.451307,78.7026146 L100.451307,75.3125525 Z M104.588952,75.3125525 L105.195646,75.3125525 L105.195646,78.7026146 L104.588952,78.7026146 L104.588952,75.3125525 Z"
                  id="存储"></path>
        </g>
    </g>
</svg>